<svg xmlns="http://www.w3.org/2000/svg" xmlns:xlink="http://www.w3.org/1999/xlink" aria-hidden="true" focusable="false" width="32px" height="32px" style="-ms-transform: rotate(360deg); -webkit-transform: rotate(360deg); transform: rotate(360deg);" preserveAspectRatio="xMidYMid meet" viewBox="0 0 2048 2048"><path d="M1024 99.004c-510.27 0-925 414.72-925 924.994s414.729 925.004 925 925.004s925-414.73 925-925.004c0-510.273-414.73-924.994-925-924.994zm0 100c456.228 0 825 368.764 825 824.994s-368.773 825.004-825 825.004s-825-368.774-825-825.004s368.772-824.994 825-824.994zm-8.29 385.945c-171.528 1.212-335.1 113.885-398.317 273.285c-65.79 155.801-29.42 347.57 88.884 468.442c115.027 123.83 304.555 169.464 463.307 111.428c166.36-56.675 288.573-221.231 292.976-397.19c8.863-170.945-93.874-339.97-248.558-412.566c-59.027-28.58-124.545-43.458-190.117-43.371a394.838 394.838 0 0 0-8.174-.028zm15.643 79.973c156.707.7 303.715 116.52 340.258 269.176c40.7 149.018-27.87 318.936-161.361 397.015c-136.3 85.544-328.47 62.745-440.395-53.11c-118.113-113.943-139.147-311.084-48.53-447.733c64.178-101.947 182.05-166.467 302.56-165.293c2.492-.048 4.981-.066 7.468-.055zm105.952 102.072l-119.903 217.527c-37.032 3.938-45.83 60.122-11.662 75.106c22.57 15.666 40.247-10.392 60.793-9.494h183.293v-50H1065.89l115.205-209.004l-43.79-24.135z" fill="#2D2D2D"/><rect x="0" y="0" width="2048" height="2048" fill="rgba(0, 0, 0, 0)" /></svg>