<svg xmlns="http://www.w3.org/2000/svg" xmlns:xlink="http://www.w3.org/1999/xlink" aria-hidden="true" focusable="false" width="32px" height="32px" style="-ms-transform: rotate(360deg); -webkit-transform: rotate(360deg); transform: rotate(360deg);" preserveAspectRatio="xMidYMid meet" viewBox="0 0 2048 2048"><path d="M1005.303 98.988c-447.59.377-859.063 373.342-901.291 819.483c-45.314 379.987 168.535 777.154 517.567 938.558c324.137 158.423 740.176 108.288 1009.01-135.647c273.526-236.69 393.041-640.13 272.893-984.32c-114.258-351.15-451.46-619.981-822.842-636.252c-25.079-1.64-50.213-1.947-75.337-1.822zm18.334 289.733c329.628-9.588 631.825 281.137 635.693 610.898c14.255 301.673-212.385 597.907-513.018 648.484c-290.913 58.275-613.563-109.854-715.39-392.282c-109.622-279.29 2.217-632.478 269.045-779.065c97.56-57.284 210.508-88.176 323.67-88.035zm354.892 241.117l-210.236 426.178L906.887 716L669.47 1418.162l266.174-342.127l274.562 314.172l168.322-760.37z" fill="#2D2D2D"/><rect x="0" y="0" width="2048" height="2048" fill="rgba(0, 0, 0, 0)" /></svg>