<svg xmlns="http://www.w3.org/2000/svg" xmlns:xlink="http://www.w3.org/1999/xlink" aria-hidden="true" focusable="false" width="32px" height="32px" style="-ms-transform: rotate(360deg); -webkit-transform: rotate(360deg); transform: rotate(360deg);" preserveAspectRatio="xMidYMid meet" viewBox="0 0 2048 2048"><path d="M1024 99c-363.757-4.934-714.249 229.17-852.226 565.192c-144.118 330.153-69.236 740.283 182.862 997.771c242.464 260.992 641.95 356.786 976.52 234.67c346.74-118.073 602.724-458.592 616.639-825.09c23.34-360.131-188.536-719.422-512.954-876.293C1307.807 131.856 1165.95 98.797 1024 99zm0 100c359.283-6.249 700.984 251.836 793.747 598.93c97.03 326.908-34.215 705.405-315.907 899.024C1209.227 1912.03 775.3 1896.47 498.977 1660.8c-278.414-221.98-378.073-632.576-235.228-958.182C387.557 401.605 698.338 195.179 1024 199zm354.53 430.836l-210.237 426.18l-261.406-340.014l-237.416 702.162l266.172-342.129l274.562 314.17l168.324-760.37zm-448.397 224.86l248.558 315.126l62.078-138.195l-59.431 239.111l-253.695-298.441l-102.926 159.117l105.416-276.719z" fill="#2D2D2D"/><rect x="0" y="0" width="2048" height="2048" fill="rgba(0, 0, 0, 0)" /></svg>