<svg xmlns="http://www.w3.org/2000/svg" xmlns:xlink="http://www.w3.org/1999/xlink" width="32px" height="32px" preserveAspectRatio="xMidYMid meet" viewBox="0 0 2048 2048" style="-ms-transform: rotate(360deg); -webkit-transform: rotate(360deg); transform: rotate(360deg);"><path d="M1024.022 99.36c-19.324-.017-38.646 7.15-52.98 21.55L120.937 971.023c-28.67 28.668-28.537 77.295.132 105.963l849.971 849.965c28.67 28.678 77.294 28.804 105.963 0l850.106-850.1c28.669-28.667 28.536-77.296-.135-105.964L1077.002 120.91c-14.334-14.334-33.657-21.534-52.98-21.55zm-.065 126.045l798.66 798.666l-798.66 798.657l-798.66-798.657l798.66-798.666zm.043 368.6c-237.232 0-430 192.78-430 430.008c0 237.228 192.768 430 430 430s430-192.772 430-430c0-237.229-192.768-430.008-430-430.008zm0 47.69c211.408 0 382.323 170.912 382.323 382.318c0 211.405-170.915 382.33-382.323 382.33c-211.407 0-382.322-170.925-382.322-382.33c0-211.406 170.915-382.319 382.322-382.319z" fill="#2D2D2D"/><rect x="0" y="0" width="2048" height="2048" fill="rgba(0, 0, 0, 0)" /></svg>