<svg xmlns="http://www.w3.org/2000/svg" xmlns:xlink="http://www.w3.org/1999/xlink" aria-hidden="true" focusable="false" width="32px" height="32px" style="-ms-transform:rotate(360deg);-webkit-transform:rotate(360deg);transform:rotate(360deg)" preserveAspectRatio="xMidYMid meet" viewBox="0 0 2000 2000">
  <path d="M429.65 210C214.934 210 40 384.196 40 598.5v803c0 214.304 174.934 388.5 389.65 388.5h1140.7c214.716 0 389.65-174.196 389.65-388.5v-803c0-214.304-174.934-388.5-389.65-388.5H429.65zm0 120h1140.7C1720.887 330 1840 448.826 1840 598.5v803c0 149.674-119.113 268.5-269.65 268.5H429.65C279.113 1670 160 1551.174 160 1401.5v-803C160 448.826 279.113 330 429.65 330z" fill="#2D2D2D"/>
  <path d="M1057.07 410.836C805.11 407.3 563.447 583.065 491.134 824.983c-55.584 173.977-23.105 373.061 85.522 520.027l-269.086-52.09l-22.804 117.814l483.865 93.664l93.687-479.986l-117.779-22.988l-56.861 291.316c-138.733-165.6-136.73-427.773 4.367-591.379c137.417-171.716 399.203-221.007 590.733-114c183.232 94.568 284.888 318.597 234.896 518.746c-44.77 208.91-247.404 367.34-460.604 363.053c-55.485-3.935-83.374 76.196-37.436 107.561c40.104 24.986 90.846 7.364 134.808 4.475c248.181-37.748 457.52-249.452 489.52-498.91c36.994-238.025-91.384-488.935-304.803-600.241c-86.168-46.769-184.068-71.364-282.089-71.21z" fill="#2D2D2D"/>
  <rect x="0" y="0" width="2000" height="2000" fill="rgba(0, 0, 0, 0)"/>
</svg>
