<svg xmlns="http://www.w3.org/2000/svg" xmlns:xlink="http://www.w3.org/1999/xlink" aria-hidden="true" focusable="false" width="32px" height="32px" style="-ms-transform: rotate(360deg); -webkit-transform: rotate(360deg); transform: rotate(360deg);" preserveAspectRatio="xMidYMid meet" viewBox="0 0 2000 2000"><g transform="translate(0 947.638)"><rect width="1800" height="1460" x="100" y="-677.638" rx="329.651" ry="328.5" fill="transparent" stroke="#2D2D2D" stroke-width="120" stroke-linecap="round"/><path d="M782.99 94.728h320.662c31.894 0 46.426-18.387 52.19-46.737c8.96-43.893-13.184-85.435-52.814-85.533c-97.378-.489-320.04-.196-320.04-.196v.223s340.368.268 379.564 0c39.195-.27 53.287-33.884 53.405-71.521c.12-37.54-18.907-70.744-53.287-70.793c-117.153-.098-379.68-.635-379.68-.635v-.194s199.412.465 285.185.465c35.051-.098 53.445-30.314 53.327-68.293c-.237-37.197-19.42-63.45-53.722-63.45c-137.086-.244-428.878 1.895-437.468-.146c-2.274-.54-4.22-4.971-2.723-6.794c14.054-17.122 80.562-79.478 95.325-98.59c18.512-23.803 20.486-56.943 6.394-78.401c-16.341-24.977-38.406-24.44-58.418-11.536c-57.669 37.344-260.516 178.067-305.237 208.763c-35.525 24.39-59.84 61.245-74.287 107.045c-14.604 46.435-13.105 100.51-12.947 147.875c.158 35.095.949 63.478 9.554 98.573c24.827 102.01 90.39 154.164 186.464 154.457c182.282.684 364.643.929 546.964 0c29.801-.195 46.221-19.702 46.655-55.482c.474-36.854-16.696-58.591-46.695-58.787c-70.181-.489-238.37 0-238.37 0z" fill="none" stroke="#2D2D2D" stroke-width="43.663900000000005" stroke-linecap="round"/></g><rect x="0" y="0" width="2000" height="2000" fill="rgba(0, 0, 0, 0)" /></svg>