<svg id="Layer_1" data-name="Layer 1" xmlns="http://www.w3.org/2000/svg" viewBox="0 0 241.45 38.63"><defs><style>.cls-1{fill:#95b4af;}</style></defs><path class="cls-1" d="M2.51,9.38A18,18,0,0,1,9.37,2.51,19.49,19.49,0,0,1,19.13.05,19.15,19.15,0,0,1,30.21,3.3a17,17,0,0,1,6.64,9h-8.7A9,9,0,0,0,24.5,8.21a10.67,10.67,0,0,0-5.43-1.35A11.24,11.24,0,0,0,13.21,8.4a10.6,10.6,0,0,0-4,4.35,14.41,14.41,0,0,0-1.43,6.59,14.44,14.44,0,0,0,1.43,6.57,10.55,10.55,0,0,0,4,4.38,11.24,11.24,0,0,0,5.86,1.54,10.49,10.49,0,0,0,5.43-1.38,9.16,9.16,0,0,0,3.65-4.08h8.7a16.92,16.92,0,0,1-6.62,9,19.27,19.27,0,0,1-11.1,3.21,19.49,19.49,0,0,1-9.76-2.46,18,18,0,0,1-6.86-6.83A19.69,19.69,0,0,1,0,19.34,19.76,19.76,0,0,1,2.51,9.38Z"/><path class="cls-1" d="M50.43,36.15a18.53,18.53,0,0,1-7-6.89,19.28,19.28,0,0,1-2.59-10A19.13,19.13,0,0,1,43.4,9.38a18.46,18.46,0,0,1,7-6.89,20.29,20.29,0,0,1,19.48,0,18.37,18.37,0,0,1,7,6.89,19.31,19.31,0,0,1,2.56,9.91,19.45,19.45,0,0,1-2.56,10,18.38,18.38,0,0,1-7,6.89,20.31,20.31,0,0,1-19.45,0Zm15.72-5.81a10.53,10.53,0,0,0,4-4.4,14.38,14.38,0,0,0,1.46-6.65,14.2,14.2,0,0,0-1.46-6.62,10.4,10.4,0,0,0-4-4.35,12.72,12.72,0,0,0-12,0,10.34,10.34,0,0,0-4.08,4.35,14.32,14.32,0,0,0-1.46,6.62,14.51,14.51,0,0,0,1.46,6.65,10.47,10.47,0,0,0,4.08,4.4,12.5,12.5,0,0,0,12,0Z"/><path class="cls-1" d="M103.92,38.26,95.6,23.56H92v14.7H84.47V.54H98.62a16.49,16.49,0,0,1,7.46,1.54,10.8,10.8,0,0,1,4.62,4.16,11.32,11.32,0,0,1,1.54,5.86,11.23,11.23,0,0,1-2.16,6.73A11,11,0,0,1,103.65,23l9,15.3ZM92,17.89h6.32A6.33,6.33,0,0,0,103,16.4a5.52,5.52,0,0,0,1.51-4.13,5.29,5.29,0,0,0-1.51-4,6.5,6.5,0,0,0-4.6-1.43H92Z"/><path class="cls-1" d="M142.88.54V6.65h-10V38.26h-7.57V6.65H115.21V.54Z"/><path class="cls-1" d="M155.32,6.65V16.1H168v6h-12.7v10h14.32v6.16H147.75V.49h21.89V6.65Z"/><path class="cls-1" d="M185.42,31.88h17v6.38H176.66V32.42l16.86-25.5H176.66V.54h25.72V6.38Z"/><path class="cls-1" d="M231,31.07H216l-2.49,7.19h-7.94L219.08.49h8.81l13.56,37.77h-8ZM228.91,25,223.46,9.24,218,25Z"/></svg>