<?xml version="1.0" encoding="UTF-8" standalone="no"?>
<svg
   xmlns:dc="http://purl.org/dc/elements/1.1/"
   xmlns:cc="http://creativecommons.org/ns#"
   xmlns:rdf="http://www.w3.org/1999/02/22-rdf-syntax-ns#"
   xmlns:svg="http://www.w3.org/2000/svg"
   xmlns="http://www.w3.org/2000/svg"
   viewBox="0 0 381.76001 78.720001"
   height="78.720001"
   width="381.76001"
   id="svg869"
   version="1.1">
  <metadata
     id="metadata875">
    <rdf:RDF>
      <cc:Work
         rdf:about="">
        <dc:format>image/svg+xml</dc:format>
        <dc:type
           rdf:resource="http://purl.org/dc/dcmitype/StillImage" />
        <dc:title></dc:title>
      </cc:Work>
    </rdf:RDF>
  </metadata>
  <defs
     id="defs873" />
  <path
     id="path925"
     d="M 9.9202481,14.691934 C 9.4856107,14.588903 9.3366186,14.500792 8.9227074,14.102005 8.6550842,13.84416 8.3595535,13.50346 8.2659726,13.344894 8.0476793,12.97501 7.9394545,12.137298 8.0192001,11.434756 8.0898611,10.812247 8.2632336,10.502127 8.9153337,9.8317996 9.3759995,9.358257 9.7886717,9.1734274 10.652129,9.0539151 10.983788,9.0080098 24.128177,8.9861997 43.724617,8.9990389 l 32.52207,0.021308 0.571707,0.2059308 c 0.675954,0.2434809 1.282519,0.7904173 1.644641,1.4829603 0.221191,0.423022 0.228947,0.477593 0.192261,1.352891 -0.04211,1.004706 -0.146898,1.300209 -0.668027,1.883794 -0.320877,0.359334 -0.740218,0.600719 -1.32872,0.76485 -0.636748,0.177587 -65.987492,0.159139 -66.7383009,-0.01884 z"
     style="opacity:1;fill:#e54122;fill-opacity:1;stroke-width:0.01647446;stroke-miterlimit:4;stroke-dasharray:none" />
  <path
     id="path927"
     d="m 13.973211,32.628132 c -0.809893,-0.28661 -1.6537,-1.050229 -1.888235,-1.708791 -0.350497,-0.984178 -0.33669,-1.657684 0.05092,-2.483939 0.401793,-0.856483 0.977388,-1.388017 1.796126,-1.658635 0.545123,-0.180179 58.238758,-0.19034 58.813838,-0.01036 0.553256,0.173152 1.180735,0.674671 1.611006,1.287614 0.22587,0.321762 0.530675,1.251276 0.530675,1.618313 0,0.458206 -0.293941,1.294593 -0.636154,1.81013 -0.293355,0.441936 -0.503007,0.622122 -1.179809,1.013992 -0.282966,0.163838 -0.445878,0.164814 -29.609079,0.177359 -16.1285,0.0069 -29.398682,-0.01362 -29.489291,-0.04569 z"
     style="opacity:1;fill:#f4d380;fill-opacity:1;stroke-width:0.01647446;stroke-miterlimit:4;stroke-dasharray:none" />
  <path
     id="path929"
     d="m 18.83985,50.480423 c -0.08694,-0.05046 -0.302598,-0.124224 -0.479239,-0.163913 -0.759033,-0.170543 -1.525199,-1.007253 -1.876074,-2.048808 -0.210061,-0.623556 -0.206529,-1.013409 0.01544,-1.704439 0.207167,-0.644944 0.385232,-0.927043 0.866258,-1.372364 0.496967,-0.46008 0.955918,-0.696241 1.536036,-0.790397 0.656532,-0.106557 48.065679,-0.111796 48.801472,-0.0054 0.284907,0.0412 0.686715,0.156577 0.892908,0.256393 0.411855,0.199376 1.26618,0.997164 1.26618,1.182388 0,0.06419 0.04038,0.130174 0.08973,0.146625 0.150762,0.05025 0.355432,0.899946 0.353249,1.466519 -0.0026,0.680569 -0.150357,1.168846 -0.510917,1.688633 -0.28895,0.416552 -0.73357,0.855417 -0.872861,0.861562 -0.04174,0.0018 -0.134406,0.0526 -0.205931,0.11279 -0.07152,0.06019 -0.346481,0.18993 -0.611014,0.288304 l -0.480972,0.17886 -24.313098,-0.0025 c -17.711995,-0.0018 -24.356016,-0.02742 -24.471171,-0.09426 z"
     style="opacity:1;fill:#a7d0e3;fill-opacity:1;stroke-width:0.01647446;stroke-miterlimit:4;stroke-dasharray:none" />
  <path
     id="path931"
     d="m 24.310937,68.042645 c -0.540764,-0.11619 -1.029196,-0.390556 -1.462108,-0.821307 -0.23785,-0.236663 -0.432455,-0.478323 -0.432455,-0.537024 0,-0.0587 -0.05071,-0.148809 -0.112678,-0.200242 -0.06197,-0.05143 -0.173268,-0.343245 -0.247322,-0.648472 -0.121265,-0.499814 -0.122602,-0.61777 -0.01346,-1.187111 0.160098,-0.835145 0.447599,-1.294593 1.159453,-1.852891 0.710291,-0.557072 -0.664156,-0.521544 20.176975,-0.521544 17.102439,0 18.881617,0.01227 19.304419,0.133163 0.256149,0.07324 0.524245,0.184442 0.59577,0.247117 0.07152,0.06267 0.163766,0.113953 0.204981,0.113953 0.13189,0 0.743313,0.732565 0.947199,1.134868 0.172003,0.339391 0.197366,0.504616 0.198816,1.295116 0.0016,0.857452 -0.01134,0.927818 -0.240517,1.31072 -0.323637,0.540725 -1.026679,1.194733 -1.508252,1.403058 -0.390704,0.169017 -0.417682,0.16927 -19.336884,0.180897 -10.420099,0.0064 -19.075371,-0.01623 -19.233938,-0.0503 z"
     style="opacity:1;fill:#887c75;fill-opacity:1;stroke-width:0.01647446;stroke-miterlimit:4;stroke-dasharray:none" />
  <path
     id="path933"
     d="m 120.13858,67.947373 c -0.11327,-0.04526 -0.74342,-0.117976 -1.40033,-0.16158 -0.65692,-0.0436 -1.34267,-0.131337 -1.52389,-0.194964 -0.18122,-0.06363 -0.55331,-0.135445 -0.82687,-0.1596 -0.27356,-0.02416 -0.63378,-0.100909 -0.80049,-0.170563 -0.1667,-0.06965 -0.42476,-0.127903 -0.57346,-0.12944 -0.14869,-0.0015 -0.41862,-0.07442 -0.59984,-0.16195 -0.18122,-0.08753 -0.44124,-0.160413 -0.57783,-0.16195 -0.13658,-0.0015 -0.38665,-0.07693 -0.55571,-0.167539 -0.16906,-0.09061 -0.38178,-0.164745 -0.47272,-0.164745 -0.0909,0 -0.30366,-0.07413 -0.47272,-0.164745 -0.16906,-0.09061 -0.38679,-0.164744 -0.48385,-0.164744 -0.0971,0 -0.2218,-0.05462 -0.27721,-0.121379 -0.0554,-0.06676 -0.22542,-0.144771 -0.37782,-0.173361 -0.1524,-0.02859 -0.31805,-0.101325 -0.36809,-0.16163 -0.05,-0.06031 -0.20891,-0.135394 -0.35302,-0.166863 -0.14411,-0.03147 -0.35042,-0.126519 -0.45847,-0.211225 -0.10804,-0.0847 -0.26161,-0.15401 -0.34127,-0.15401 -0.0797,0 -0.16481,-0.05211 -0.18925,-0.115791 -0.0244,-0.06368 -0.15814,-0.140766 -0.29712,-0.17129 -0.13897,-0.03052 -0.25268,-0.08512 -0.25268,-0.121332 0,-0.03621 -0.12047,-0.114165 -0.26771,-0.173237 -0.14724,-0.05907 -0.34682,-0.165504 -0.44352,-0.236517 -0.0967,-0.07101 -0.24496,-0.17477 -0.32949,-0.23057 -0.0845,-0.0558 -0.29433,-0.194804 -0.46623,-0.308896 -0.17191,-0.114093 -0.34798,-0.207441 -0.39127,-0.207441 -0.0433,0 -0.0787,-0.03341 -0.0787,-0.07424 0,-0.04083 -0.12047,-0.151179 -0.26771,-0.245221 -0.44976,-0.287259 -0.57079,-0.374194 -0.7594,-0.545453 -0.0998,-0.09061 -0.41919,-0.366995 -0.70978,-0.61419 -0.62651,-0.532947 -1.68262,-1.593 -2.25816,-2.266581 -0.22653,-0.26511 -0.48988,-0.564976 -0.58523,-0.666369 -0.0954,-0.101393 -0.19613,-0.243653 -0.22394,-0.316134 -0.0278,-0.07248 -0.0843,-0.131783 -0.12554,-0.131783 -0.0412,0 -0.12102,-0.111203 -0.17732,-0.247117 -0.0563,-0.135915 -0.13585,-0.247117 -0.17678,-0.247117 -0.0409,0 -0.10965,-0.09267 -0.15271,-0.205931 -0.0431,-0.113262 -0.11178,-0.205931 -0.15271,-0.205931 -0.0409,0 -0.12048,-0.111203 -0.17678,-0.247117 -0.0563,-0.135914 -0.1313,-0.247117 -0.16668,-0.247117 -0.0354,0 -0.10309,-0.111202 -0.15047,-0.247117 -0.0474,-0.135914 -0.11701,-0.247117 -0.15474,-0.247117 -0.0377,0 -0.11449,-0.101936 -0.17059,-0.226524 -0.0561,-0.124588 -0.19245,-0.374794 -0.30301,-0.556013 -0.11057,-0.181219 -0.257389,-0.440692 -0.326277,-0.576606 -0.06889,-0.135914 -0.159103,-0.302718 -0.200479,-0.370676 -0.04138,-0.06796 -0.115987,-0.216227 -0.165803,-0.329489 -0.04981,-0.113262 -0.121585,-0.261532 -0.159489,-0.329489 -0.255041,-0.457259 -0.426514,-0.831914 -0.426514,-0.9319 0,-0.0642 -0.07414,-0.210971 -0.164745,-0.326162 -0.09061,-0.115191 -0.164744,-0.268595 -0.164744,-0.340896 0,-0.0723 -0.07413,-0.269778 -0.164745,-0.438836 -0.09061,-0.169058 -0.164745,-0.372929 -0.164745,-0.453048 0,-0.08012 -0.07413,-0.283989 -0.164744,-0.453048 -0.09061,-0.169057 -0.164745,-0.38308 -0.164745,-0.475606 0,-0.09253 -0.05441,-0.245914 -0.120915,-0.34086 -0.0665,-0.09495 -0.145015,-0.334867 -0.174471,-0.533156 -0.02945,-0.198288 -0.101581,-0.43774 -0.160279,-0.532115 -0.0587,-0.09437 -0.132474,-0.353847 -0.163947,-0.576606 -0.03147,-0.222759 -0.102986,-0.479151 -0.158917,-0.569761 -0.05593,-0.09061 -0.125577,-0.397346 -0.154768,-0.681637 -0.02919,-0.284291 -0.103988,-0.617899 -0.166214,-0.741351 -0.06223,-0.123452 -0.135635,-0.529792 -0.163132,-0.902977 -0.0275,-0.373186 -0.101921,-0.780929 -0.165386,-0.906095 -0.06698,-0.132099 -0.134165,-0.607723 -0.16014,-1.133673 -0.02461,-0.498352 -0.106098,-1.251894 -0.181078,-1.674537 -0.116491,-0.656632 -0.131765,-1.279873 -0.104975,-4.283361 0.02177,-2.440115 0.06154,-3.603077 0.130075,-3.803222 0.0543,-0.158567 0.121697,-0.733114 0.149777,-1.276771 0.02808,-0.543657 0.103612,-1.117894 0.167847,-1.276082 0.06424,-0.158188 0.138636,-0.584465 0.165334,-0.947282 0.0267,-0.362817 0.09828,-0.75841 0.159077,-0.879096 0.0608,-0.120687 0.135558,-0.435761 0.166139,-0.700165 0.03058,-0.264405 0.101888,-0.554871 0.158459,-0.64548 0.05657,-0.09061 0.129548,-0.367719 0.16217,-0.615799 0.03262,-0.248079 0.106723,-0.526086 0.164668,-0.617792 0.05795,-0.09171 0.132098,-0.333543 0.164782,-0.537414 0.03269,-0.203872 0.110382,-0.443792 0.172661,-0.533156 0.06228,-0.08936 0.113233,-0.238183 0.113233,-0.330709 0,-0.09253 0.07413,-0.306549 0.164745,-0.475606 0.09061,-0.169059 0.164989,-0.372381 0.165287,-0.451829 2.99e-4,-0.07945 0.07419,-0.255653 0.164202,-0.391567 0.09001,-0.135914 0.164728,-0.321252 0.166034,-0.411861 0.0013,-0.09061 0.07486,-0.257414 0.163455,-0.370676 0.08859,-0.113262 0.161906,-0.286685 0.162913,-0.385385 10e-4,-0.0987 0.0556,-0.233225 0.121324,-0.298945 0.06572,-0.06572 0.145508,-0.225906 0.177305,-0.355966 0.0318,-0.130061 0.126297,-0.324876 0.209998,-0.432921 0.0837,-0.108046 0.152184,-0.24251 0.152184,-0.29881 0,-0.0563 0.05196,-0.145491 0.115476,-0.198201 0.06351,-0.05271 0.1386,-0.187969 0.166862,-0.300573 0.02826,-0.112604 0.198655,-0.416891 0.378645,-0.676193 0.18,-0.259302 0.32732,-0.499639 0.32738,-0.534082 6e-5,-0.03444 0.12984,-0.247201 0.28841,-0.472795 0.15856,-0.225595 0.2883,-0.445778 0.2883,-0.489296 0,-0.04352 0.0472,-0.108767 0.10494,-0.144997 0.10004,-0.06279 0.32882,-0.367535 0.5185,-0.690646 0.0792,-0.134973 0.51688,-0.682544 0.74095,-0.927061 0.0482,-0.05259 0.31238,-0.355084 0.58709,-0.672218 0.66211,-0.764367 1.28847,-1.392619 1.88472,-1.890415 0.64382,-0.537517 0.75631,-0.636077 0.92139,-0.807278 0.0764,-0.07928 0.17398,-0.144152 0.21674,-0.144152 0.0428,0 0.13646,-0.05541 0.20822,-0.123125 0.28805,-0.27184 0.6537,-0.535854 0.74214,-0.535854 0.0515,0 0.115,-0.0556 0.14107,-0.123558 0.0261,-0.06796 0.0962,-0.123559 0.15584,-0.123559 0.0596,0 0.21856,-0.09267 0.35316,-0.20593 0.13461,-0.113262 0.28689,-0.205931 0.3384,-0.205931 0.0515,0 0.11413,-0.05334 0.13914,-0.118525 0.025,-0.06519 0.15609,-0.142819 0.29128,-0.172512 0.1352,-0.02969 0.2658,-0.106093 0.29024,-0.169778 0.0244,-0.06368 0.10635,-0.115791 0.18204,-0.115791 0.0757,0 0.22492,-0.06116 0.33165,-0.13592 0.31017,-0.217251 0.91251,-0.523059 1.03026,-0.523059 0.0594,0 0.20233,-0.07413 0.31752,-0.164745 0.1152,-0.09061 0.28435,-0.164744 0.37591,-0.164744 0.0916,0 0.22105,-0.05459 0.28778,-0.121319 0.0667,-0.06672 0.26937,-0.154585 0.45034,-0.195245 0.18096,-0.04066 0.41527,-0.134337 0.52069,-0.208171 0.10541,-0.07383 0.27621,-0.134244 0.37956,-0.134244 0.10334,0 0.32622,-0.07414 0.49528,-0.164745 0.16905,-0.09061 0.42014,-0.164744 0.55797,-0.164744 0.13784,0 0.32504,-0.05214 0.41603,-0.115864 0.091,-0.06372 0.34943,-0.142121 0.57434,-0.174214 0.2249,-0.032092 0.52012,-0.1070302 0.65604,-0.1665294 0.13591,-0.059499 0.48805,-0.1334674 0.78253,-0.164374 0.29448,-0.030907 0.64687,-0.1020375 0.78307,-0.158069 0.13621,-0.056031 0.65516,-0.1283131 1.15322,-0.1606261 0.49806,-0.032313 1.13953,-0.1121112 1.4255,-0.1773296 0.74265,-0.1693717 5.58225,-0.1706763 6.14386,-0.00166 0.21368,0.064307 0.80339,0.143136 1.31046,0.1751745 0.50707,0.032039 1.01462,0.1048451 1.12788,0.1617924 0.11326,0.056947 0.48299,0.1309867 0.82162,0.1645319 0.33863,0.033545 0.69077,0.1077351 0.78254,0.1648665 0.0918,0.057131 0.36553,0.1284865 0.60836,0.1585668 0.24284,0.03008 0.52084,0.104039 0.6178,0.164353 0.0969,0.06031 0.35481,0.132261 0.57303,0.159882 0.21822,0.02762 0.47668,0.106193 0.57434,0.174603 0.0977,0.06841 0.25329,0.124381 0.34581,0.124381 0.0925,0 0.30655,0.07414 0.47561,0.164745 0.16906,0.09061 0.38507,0.164744 0.48002,0.164744 0.095,0 0.26689,0.07414 0.38208,0.164745 0.11519,0.09061 0.28785,0.164989 0.38367,0.165287 0.0958,2.97e-4 0.28543,0.07419 0.42135,0.164202 0.13591,0.09001 0.3154,0.163904 0.39887,0.164202 0.0835,2.97e-4 0.246,0.07468 0.36119,0.165288 0.11519,0.09061 0.26346,0.164744 0.32949,0.164744 0.066,0 0.2143,0.07414 0.32949,0.164745 0.11519,0.09061 0.27973,0.164745 0.36566,0.164745 0.0859,0 0.17668,0.05334 0.2017,0.118525 0.025,0.06519 0.15316,0.142175 0.28477,0.171082 0.13161,0.02891 0.25904,0.0845 0.28317,0.123542 0.0241,0.03904 0.25622,0.19128 0.51577,0.338306 0.25954,0.147026 0.49043,0.292396 0.51308,0.323045 0.0227,0.03065 0.1665,0.125765 0.31966,0.21137 0.41401,0.231406 0.53866,0.309724 0.67183,0.422113 0.40966,0.34572 0.64955,0.516069 0.72673,0.516069 0.0485,0 0.12785,0.07414 0.17635,0.164745 0.0485,0.09061 0.12091,0.164745 0.16093,0.164745 0.10011,0 0.6814,0.513827 1.29082,1.141009 0.6645,0.683865 0.7723,0.815087 0.7723,0.940112 0,0.0573 0.0741,0.242505 0.16474,0.411562 0.13873,0.258829 0.16475,0.464752 0.16475,1.303746 0,0.871639 -0.0206,1.022585 -0.16475,1.205805 -0.0906,0.115191 -0.16474,0.260042 -0.16474,0.321889 0,0.102806 -0.0734,0.200343 -0.47388,0.629739 -0.0752,0.08064 -0.30056,0.238175 -0.50078,0.350082 -0.41528,0.232103 -1.10757,0.274481 -1.35996,0.08325 -0.0835,-0.06324 -0.2966,-0.139454 -0.47364,-0.169364 -0.17704,-0.02991 -0.32189,-0.0837 -0.32189,-0.119523 0,-0.03583 -0.12047,-0.113865 -0.26771,-0.173421 -0.14724,-0.05955 -0.28624,-0.133014 -0.30889,-0.163243 -0.0227,-0.03023 -0.16166,-0.116688 -0.3089,-0.192131 -0.14724,-0.07544 -0.26771,-0.173282 -0.26771,-0.217424 0,-0.04414 -0.0432,-0.08026 -0.0961,-0.08026 -0.0528,0 -0.15476,-0.05645 -0.22652,-0.125452 -0.14288,-0.137386 -0.62266,-0.503464 -0.91515,-0.698271 -0.10204,-0.06796 -0.28765,-0.20696 -0.41247,-0.308896 -0.12483,-0.101936 -0.2622,-0.185338 -0.30527,-0.185338 -0.0431,0 -0.1454,-0.07413 -0.2274,-0.164745 -0.082,-0.09061 -0.19895,-0.164744 -0.25988,-0.164744 -0.0609,0 -0.11079,-0.03798 -0.11079,-0.08441 0,-0.04643 -0.0907,-0.118878 -0.20146,-0.161004 -0.11079,-0.04213 -0.37953,-0.199594 -0.5972,-0.349931 -0.21766,-0.150336 -0.48841,-0.31956 -0.60167,-0.37605 -0.11326,-0.05649 -0.3542,-0.190194 -0.53542,-0.297116 -0.62694,-0.369903 -2.51278,-1.28503 -2.64812,-1.28503 -0.0421,0 -0.22193,-0.07414 -0.39966,-0.164745 -0.17772,-0.09061 -0.40927,-0.164745 -0.51455,-0.164745 -0.10527,0 -0.27592,-0.05537 -0.3792,-0.123045 -0.10328,-0.06767 -0.37072,-0.147664 -0.5943,-0.177754 -0.22358,-0.03009 -0.48065,-0.100958 -0.57126,-0.157484 -0.0906,-0.05653 -0.44275,-0.128922 -0.78253,-0.160881 -0.33979,-0.03196 -0.66501,-0.09633 -0.72271,-0.143035 -0.0577,-0.04671 -1.00173,-0.136543 -2.09785,-0.199629 -1.70241,-0.09798 -2.28419,-0.09801 -3.99097,-1.57e-4 -1.09892,0.063 -2.04533,0.152833 -2.10314,0.19963 -0.0578,0.0468 -0.38311,0.111233 -0.7229,0.143192 -0.33978,0.03196 -0.69192,0.104533 -0.78253,0.161275 -0.0906,0.05674 -0.36862,0.129595 -0.61779,0.161895 -0.24918,0.0323 -0.52719,0.10652 -0.6178,0.164934 -0.0906,0.05841 -0.31301,0.133469 -0.49423,0.16679 -0.18122,0.03332 -0.38509,0.108353 -0.45305,0.166738 -0.068,0.05839 -0.25884,0.130365 -0.42418,0.159955 -0.16534,0.02959 -0.34224,0.103952 -0.39311,0.165251 -0.0509,0.0613 -0.20502,0.133956 -0.34255,0.161461 -0.13753,0.02751 -0.30615,0.106108 -0.37471,0.174672 -0.0686,0.06856 -0.19161,0.12466 -0.27344,0.12466 -0.0818,0 -0.19334,0.05371 -0.24782,0.119345 -0.0545,0.06564 -0.22582,0.161184 -0.38076,0.212319 -0.15494,0.05114 -0.28172,0.12267 -0.28172,0.158965 0,0.03629 -0.1112,0.112052 -0.24711,0.16835 -0.13592,0.0563 -0.24712,0.13493 -0.24712,0.174738 0,0.03981 -0.0524,0.07238 -0.11656,0.07238 -0.10474,0 -0.24774,0.100613 -0.70245,0.494234 -0.0785,0.06796 -0.19914,0.160626 -0.2681,0.205931 -0.069,0.0453 -0.2325,0.155049 -0.36344,0.243877 -0.376,0.255063 -2.48662,2.409098 -2.62751,2.681554 -0.0699,0.135247 -0.16327,0.245903 -0.20742,0.245903 -0.0441,0 -0.0803,0.03816 -0.0803,0.0848 0,0.04664 -0.14827,0.272371 -0.32949,0.501631 -0.18122,0.229258 -0.32949,0.470271 -0.32949,0.535581 0,0.06531 -0.053,0.13909 -0.1178,0.163953 -0.0648,0.02486 -0.15892,0.144168 -0.20917,0.265124 -0.0503,0.120956 -0.18232,0.36819 -0.29347,0.549409 -0.11116,0.181219 -0.25741,0.447425 -0.325,0.591567 -0.0676,0.144143 -0.15768,0.283571 -0.20019,0.309841 -0.0425,0.02627 -0.10105,0.155979 -0.1301,0.288244 -0.029,0.132264 -0.10604,0.284648 -0.17108,0.338631 -0.065,0.05398 -0.11827,0.159028 -0.11827,0.233435 0,0.07441 -0.0741,0.273605 -0.16474,0.442663 -0.0906,0.169058 -0.16474,0.354396 -0.16474,0.411861 0,0.05747 -0.0741,0.242804 -0.16475,0.411862 -0.0906,0.169059 -0.166,0.372381 -0.16754,0.451829 -0.002,0.07945 -0.0744,0.29272 -0.16195,0.473939 -0.0875,0.181219 -0.16064,0.422158 -0.16246,0.53542 -0.002,0.113262 -0.0623,0.317133 -0.13442,0.453048 -0.0721,0.135914 -0.16122,0.432454 -0.198,0.658978 -0.0368,0.226524 -0.12419,0.560132 -0.19424,0.741351 -0.0701,0.181219 -0.129,0.507401 -0.13099,0.724849 -0.002,0.217447 -0.0588,0.502067 -0.12624,0.632489 -0.0674,0.130421 -0.14542,0.564124 -0.17328,0.963784 -0.0279,0.39966 -0.1036,0.911992 -0.16831,1.138516 -0.29273,1.02485 -0.29204,9.485651 8.6e-4,10.538248 0.0639,0.229499 0.1364,0.732345 0.1612,1.117435 0.0248,0.385091 0.10293,0.837978 0.17363,1.006416 0.0707,0.168438 0.13015,0.464978 0.13214,0.658978 0.002,0.194001 0.0609,0.500999 0.13099,0.682218 0.07,0.181219 0.1571,0.518206 0.19343,0.748861 0.0363,0.230655 0.12567,0.534622 0.19851,0.675481 0.0728,0.14086 0.13244,0.350753 0.13244,0.466429 0,0.115676 0.0741,0.34864 0.16474,0.517698 0.0906,0.169058 0.16475,0.372929 0.16475,0.453048 0,0.08012 0.0741,0.283989 0.16474,0.453048 0.0906,0.169057 0.16475,0.38679 0.16475,0.483849 0,0.09706 0.0532,0.220638 0.11826,0.274621 0.065,0.05398 0.1433,0.216059 0.17391,0.360169 0.0306,0.144109 0.10244,0.317619 0.15963,0.385577 0.0572,0.06796 0.1486,0.262561 0.20315,0.432454 0.0545,0.169893 0.13042,0.308896 0.16861,0.308896 0.0382,0 0.0933,0.108642 0.12247,0.241425 0.0292,0.132785 0.10624,0.285594 0.17129,0.339576 0.065,0.05398 0.11826,0.143541 0.11826,0.199019 0,0.05548 0.0741,0.186347 0.16474,0.290821 0.0906,0.104473 0.16475,0.234136 0.16475,0.28814 0,0.054 0.0741,0.165279 0.16474,0.24728 0.0906,0.082 0.16475,0.181915 0.16475,0.222033 0,0.364984 2.80056,3.538203 3.5333,4.003456 0.11805,0.07496 0.24428,0.183513 0.28051,0.241231 0.0362,0.05772 0.11779,0.104944 0.18125,0.104944 0.0635,0 0.14501,0.04644 0.18124,0.103204 0.0902,0.141356 0.7108,0.555774 0.83224,0.555774 0.0542,0 0.0985,0.03896 0.0985,0.08658 0,0.04762 0.12047,0.141792 0.26771,0.209278 0.14724,0.06749 0.41598,0.212097 0.5972,0.321356 0.18122,0.10926 0.38509,0.221971 0.45305,0.250471 0.23833,0.09995 0.45418,0.202626 0.57661,0.274283 0.28656,0.167728 0.92109,0.423151 1.05245,0.423653 0.0781,3.3e-4 0.25315,0.07419 0.38906,0.164202 0.13592,0.09001 0.34122,0.163904 0.45623,0.164202 0.115,3.29e-4 0.35451,0.07468 0.53224,0.165287 0.17773,0.09061 0.44688,0.164745 0.59811,0.164745 0.15124,0 0.38149,0.05508 0.51166,0.122394 0.13018,0.06732 0.50828,0.144962 0.84023,0.172546 0.33195,0.02758 0.77035,0.11151 0.97422,0.186502 0.32168,0.118328 0.80073,0.13635 3.62438,0.13635 2.82365,0 3.3027,-0.01802 3.62438,-0.13635 0.20387,-0.07499 0.64746,-0.159401 0.98575,-0.187574 0.33829,-0.02817 0.69839,-0.105819 0.80023,-0.172546 0.10184,-0.06673 0.32602,-0.121322 0.49818,-0.121322 0.17215,0 0.45133,-0.07413 0.62039,-0.164745 0.16906,-0.09061 0.40944,-0.164989 0.5342,-0.165287 0.12475,-3.3e-4 0.33802,-0.07419 0.47394,-0.164202 0.13591,-0.09001 0.32125,-0.164147 0.41186,-0.164745 0.0906,-5.76e-4 0.27595,-0.07473 0.41186,-0.164744 0.13591,-0.09001 0.32598,-0.163904 0.42237,-0.164202 0.0964,-3.3e-4 0.21942,-0.05376 0.2734,-0.118807 0.054,-0.06504 0.20423,-0.141562 0.33388,-0.170039 0.12966,-0.02848 0.27793,-0.102612 0.32949,-0.164745 0.0516,-0.06213 0.20198,-0.136737 0.33424,-0.165787 0.13226,-0.02905 0.26197,-0.0876 0.28824,-0.130102 0.0263,-0.0425 0.1657,-0.131577 0.30984,-0.197937 0.29062,-0.133792 0.37987,-0.186993 1.0678,-0.636508 0.26192,-0.17115 0.50087,-0.311181 0.53099,-0.311181 0.0581,0 0.6941,-0.418206 0.76379,-0.502264 0.0226,-0.02732 0.13152,-0.09731 0.24192,-0.155526 0.11041,-0.05821 0.24015,-0.138926 0.28831,-0.179356 0.10005,-0.084 0.86357,-0.652062 1.35945,-1.01144 0.1839,-0.133278 0.33437,-0.272282 0.33437,-0.308896 0,-0.03661 0.0386,-0.06657 0.0857,-0.06657 0.0471,0 0.19541,-0.07413 0.32949,-0.164745 l 0.48756,-0.329489 c 0.13408,-0.09061 0.31015,-0.164883 0.39127,-0.165053 0.0811,-1.64e-4 0.26885,-0.0743 0.41719,-0.164744 0.41424,-0.252565 1.23787,-0.229215 1.71181,0.04853 0.3789,0.222053 0.79864,0.68917 0.89371,0.994585 0.0305,0.09784 0.10954,0.222853 0.17574,0.277796 0.0944,0.07838 0.12025,0.332779 0.11983,1.181244 -5e-4,0.940561 -0.0219,1.113522 -0.16421,1.328465 -0.09,0.135914 -0.1639,0.300332 -0.1642,0.365374 -6.6e-4,0.145092 -0.58284,0.85001 -1.02482,1.240886 -0.17929,0.158567 -0.40637,0.371705 -0.50462,0.473641 -0.0982,0.101936 -0.20217,0.185338 -0.23096,0.185338 -0.0288,0 -0.11881,0.06487 -0.20006,0.144151 -0.0813,0.07928 -0.2537,0.218287 -0.38322,0.308896 -0.12952,0.09061 -0.30398,0.229613 -0.38769,0.308897 -0.0837,0.07928 -0.18352,0.144151 -0.22181,0.144151 -0.0383,0 -0.13669,0.07414 -0.21869,0.164745 -0.082,0.09061 -0.19441,0.164744 -0.2498,0.164744 -0.0554,0 -0.15006,0.05946 -0.21037,0.13214 -0.0603,0.07268 -0.18533,0.16609 -0.2778,0.207584 -0.0925,0.0415 -0.33493,0.185608 -0.53881,0.32025 -0.20387,0.134643 -0.47261,0.285795 -0.59719,0.335894 -0.12459,0.0501 -0.22653,0.122032 -0.22653,0.159852 0,0.03782 -0.0834,0.09418 -0.18534,0.125243 -0.10193,0.03106 -0.24094,0.103313 -0.30889,0.160553 -0.068,0.05724 -0.21623,0.131375 -0.32949,0.164745 -0.11326,0.03337 -0.26153,0.107505 -0.32949,0.164744 -0.068,0.05724 -0.21623,0.131375 -0.32949,0.164745 -0.11326,0.03337 -0.26153,0.105494 -0.32949,0.160277 -0.068,0.05478 -0.2811,0.144554 -0.47364,0.199494 -0.19255,0.05494 -0.35008,0.13547 -0.35008,0.178956 0,0.04349 -0.084,0.07906 -0.18656,0.07906 -0.10261,0 -0.32488,0.07414 -0.49394,0.164745 -0.16905,0.09061 -0.37238,0.164883 -0.45182,0.165053 -0.0795,1.65e-4 -0.26582,0.0743 -0.41416,0.164744 -0.14833,0.09044 -0.37074,0.164682 -0.49423,0.16498 -0.12349,3.29e-4 -0.33573,0.07419 -0.47165,0.164202 -0.13591,0.09001 -0.36354,0.163903 -0.50583,0.164201 -0.14229,3.3e-4 -0.4203,0.07386 -0.61779,0.163479 -0.1975,0.08961 -0.50837,0.16375 -0.69083,0.164745 -0.18247,9.96e-4 -0.4089,0.05584 -0.50318,0.121879 -0.0943,0.06604 -0.42688,0.142698 -0.73909,0.170352 -0.31221,0.02765 -0.71593,0.102165 -0.89715,0.165579 -0.18122,0.06341 -0.84844,0.152462 -1.4827,0.197886 -0.63427,0.04542 -1.28271,0.120752 -1.44097,0.167398 -0.37294,0.109912 -4.58284,0.103042 -4.86051,-0.0079 z"
     style="opacity:1;fill:#2d2d2d;fill-opacity:1;stroke-width:0.01647446;stroke-miterlimit:4;stroke-dasharray:none" />
  <path
     id="path935"
     d="m 167.76416,67.93496 c -0.0226,-0.02329 -0.74309,-0.08448 -1.60099,-0.135971 -0.85789,-0.05149 -1.60716,-0.132932 -1.66505,-0.180976 -0.0579,-0.04804 -0.39251,-0.123015 -0.74359,-0.166602 -0.35109,-0.04359 -0.68095,-0.114616 -0.73304,-0.157842 -0.0521,-0.04323 -0.31137,-0.118646 -0.5762,-0.167603 -0.26483,-0.04896 -0.55617,-0.141306 -0.64742,-0.205223 -0.0913,-0.06392 -0.23701,-0.116212 -0.3239,-0.116212 -0.0869,0 -0.32885,-0.07816 -0.53769,-0.173688 -0.20883,-0.09553 -0.52796,-0.240022 -0.70918,-0.321095 -0.54534,-0.24397 -1.21564,-0.583299 -1.56508,-0.792293 -0.18122,-0.108384 -0.43142,-0.241933 -0.55601,-0.296775 -0.12459,-0.05484 -0.22653,-0.129572 -0.22653,-0.166065 0,-0.03649 -0.0834,-0.102944 -0.18533,-0.147668 -0.41176,-0.180657 -1.69694,-1.22568 -2.48683,-2.022126 -0.61087,-0.615936 -1.19933,-1.278556 -1.19933,-1.350464 0,-0.04303 -0.0741,-0.117906 -0.16475,-0.166399 -0.0906,-0.04849 -0.16474,-0.127848 -0.16474,-0.176345 0,-0.0485 -0.0932,-0.20473 -0.20718,-0.347184 -0.3939,-0.492466 -0.62171,-0.83714 -0.75643,-1.144511 -0.0546,-0.124588 -0.13814,-0.226523 -0.18563,-0.226523 -0.0475,0 -0.0863,-0.06914 -0.0863,-0.153636 0,-0.0845 -0.0741,-0.247884 -0.16474,-0.363075 -0.0906,-0.115191 -0.16475,-0.244928 -0.16475,-0.288303 0,-0.04338 -0.0693,-0.167266 -0.15401,-0.275311 -0.0847,-0.108045 -0.17975,-0.314355 -0.21122,-0.458465 -0.0315,-0.14411 -0.10656,-0.302967 -0.16687,-0.353017 -0.0603,-0.05005 -0.13304,-0.21569 -0.16163,-0.36809 -0.0286,-0.1524 -0.1066,-0.322422 -0.17336,-0.377827 -0.0668,-0.0554 -0.12162,-0.198132 -0.12192,-0.317173 -3e-4,-0.119041 -0.0742,-0.327641 -0.1642,-0.463555 -0.09,-0.135914 -0.16516,-0.339786 -0.167,-0.453048 -0.002,-0.113262 -0.075,-0.354201 -0.16249,-0.53542 -0.0875,-0.181219 -0.16064,-0.440692 -0.16246,-0.576606 -0.002,-0.135914 -0.058,-0.351991 -0.12485,-0.48017 -0.0669,-0.12818 -0.15587,-0.509465 -0.19782,-0.847299 -0.0419,-0.337836 -0.11385,-0.659549 -0.15981,-0.71492 -0.046,-0.05537 -0.10805,-0.471038 -0.138,-0.923706 -0.03,-0.452668 -0.10698,-1.039164 -0.17118,-1.303326 -0.1426,-0.586782 -0.16829,-5.195007 -0.0315,-5.656988 0.0469,-0.158267 0.12245,-0.714036 0.168,-1.235041 0.0455,-0.521005 0.13436,-1.095552 0.19738,-1.276771 0.063,-0.181219 0.13546,-0.537956 0.16099,-0.792749 0.0255,-0.254794 0.10203,-0.569868 0.16998,-0.700165 0.0679,-0.130297 0.12378,-0.348656 0.12406,-0.485241 2.8e-4,-0.136585 0.0746,-0.386657 0.16525,-0.555715 0.0906,-0.169058 0.16474,-0.391463 0.16474,-0.494234 0,-0.102771 0.0741,-0.325176 0.16475,-0.494233 0.0906,-0.169059 0.16474,-0.395643 0.16474,-0.503522 0,-0.107879 0.0532,-0.24031 0.11827,-0.294293 0.065,-0.05398 0.14401,-0.216059 0.17548,-0.360169 0.0315,-0.14411 0.12652,-0.350419 0.21122,-0.458465 0.0847,-0.108045 0.15401,-0.281928 0.15401,-0.386406 0,-0.104479 0.0409,-0.215208 0.0908,-0.246065 0.0499,-0.03086 0.1441,-0.172048 0.20928,-0.313758 0.0652,-0.141709 0.20896,-0.405924 0.31952,-0.587143 0.11056,-0.181219 0.24692,-0.431425 0.30302,-0.556013 0.0561,-0.124588 0.13043,-0.226524 0.1652,-0.226524 0.0348,0 0.11741,-0.129736 0.18367,-0.288303 0.0662,-0.158567 0.15941,-0.288303 0.20703,-0.288303 0.0476,0 0.0866,-0.03932 0.0866,-0.08737 0,-0.133675 1.22493,-1.616475 1.86277,-2.254922 1.07152,-1.072521 2.70569,-2.275613 3.79027,-2.790427 0.14171,-0.06726 0.2829,-0.163149 0.31376,-0.213076 0.0309,-0.04993 0.12305,-0.09078 0.20487,-0.09078 0.0818,0 0.24303,-0.07414 0.35822,-0.164744 0.11519,-0.09061 0.28199,-0.164745 0.37067,-0.164745 0.0887,0 0.25549,-0.07413 0.37068,-0.164744 0.11519,-0.09061 0.29626,-0.164989 0.40238,-0.165288 0.10611,-2.98e-4 0.30414,-0.07419 0.44005,-0.164202 0.13592,-0.09001 0.35832,-0.165161 0.49423,-0.166997 0.13592,-0.0018 0.39539,-0.07496 0.57661,-0.162492 0.18122,-0.08754 0.45923,-0.160641 0.61779,-0.162457 0.15857,-0.0018 0.39384,-0.05835 0.52284,-0.125622 0.12899,-0.06728 0.59233,-0.156512 1.02965,-0.198304 0.43732,-0.04179 0.90633,-0.120344 1.04224,-0.174559 0.34598,-0.138006 4.92585,-0.138006 5.27183,0 0.13591,0.05422 0.60492,0.132767 1.04224,0.174559 0.43732,0.04179 0.90067,0.131029 1.02966,0.198304 0.12899,0.06728 0.36426,0.123362 0.52283,0.124636 0.15857,0.0013 0.44989,0.07564 0.64738,0.165252 0.19749,0.08962 0.43898,0.162936 0.53664,0.162936 0.0977,0 0.31588,0.07413 0.48494,0.164744 0.16906,0.09061 0.37238,0.164989 0.45183,0.165288 0.0794,2.96e-4 0.25565,0.07419 0.39156,0.164202 0.13592,0.09001 0.32598,0.163903 0.42237,0.164201 0.0964,2.97e-4 0.22059,0.05516 0.27599,0.121922 0.0554,0.06676 0.22418,0.144537 0.37506,0.172841 0.15087,0.0283 0.29242,0.09865 0.31456,0.156325 0.0221,0.05767 0.13688,0.129119 0.255,0.158765 0.11812,0.02965 0.42692,0.201172 0.68623,0.381168 0.2593,0.179995 0.51779,0.327313 0.57442,0.327372 0.0566,5.9e-5 0.10296,0.03809 0.10296,0.08452 0,0.04643 0.0834,0.121004 0.18534,0.165727 0.20897,0.09168 0.87369,0.573228 1.30139,0.942765 0.4786,0.413517 1.75579,1.710384 2.05803,2.089733 0.15705,0.19713 0.34243,0.419535 0.41194,0.494234 0.0695,0.0747 0.23631,0.30262 0.37067,0.506491 0.13437,0.203872 0.27302,0.383339 0.30812,0.398816 0.0351,0.01548 0.11843,0.145213 0.18517,0.288303 0.0667,0.143089 0.19563,0.371365 0.28643,0.50728 0.0908,0.135914 0.22337,0.372989 0.29459,0.526832 0.0712,0.153843 0.18236,0.332562 0.24695,0.397152 0.0646,0.06459 0.11744,0.184386 0.11744,0.266212 0,0.08183 0.0496,0.189941 0.11022,0.240255 0.0606,0.05031 0.15478,0.240191 0.20924,0.421948 0.0545,0.181757 0.13133,0.330467 0.17084,0.330467 0.0395,0 0.0965,0.146136 0.12669,0.324748 0.0302,0.178611 0.10757,0.368487 0.17198,0.421948 0.0644,0.05346 0.11712,0.177492 0.11712,0.275627 0,0.09814 0.0691,0.313882 0.15347,0.479439 0.0844,0.165555 0.17826,0.456098 0.20857,0.645651 0.0303,0.189553 0.10952,0.422325 0.17603,0.517273 0.0665,0.09495 0.12254,0.303385 0.12453,0.463198 0.002,0.159812 0.0614,0.438838 0.13201,0.620057 0.0706,0.181219 0.16074,0.617477 0.20027,0.969461 0.0395,0.351986 0.1147,0.720007 0.16705,0.817827 0.0523,0.09782 0.12649,0.755054 0.16475,1.460522 0.0383,0.705467 0.10287,1.690411 0.14359,2.188763 0.0521,0.637455 0.0417,1.284635 -0.0351,2.182867 -0.06,0.702224 -0.11094,1.599816 -0.11317,1.99465 -0.002,0.426977 -0.0568,0.873187 -0.13419,1.101142 -0.0716,0.210795 -0.15956,0.675268 -0.19554,1.032163 -0.036,0.356893 -0.10957,0.702106 -0.16354,0.767138 -0.054,0.06503 -0.11915,0.333939 -0.14483,0.59757 -0.0257,0.263632 -0.0956,0.5359 -0.15546,0.60504 -0.0598,0.06914 -0.13486,0.291547 -0.16676,0.494234 -0.0319,0.202689 -0.10416,0.442659 -0.16058,0.533269 -0.0564,0.09061 -0.12888,0.294481 -0.16102,0.453048 -0.0321,0.158566 -0.10579,0.343904 -0.16367,0.411861 -0.0579,0.06796 -0.1324,0.251195 -0.16562,0.407195 -0.0332,0.156 -0.11148,0.33472 -0.17391,0.397153 -0.0624,0.06243 -0.11653,0.175735 -0.12022,0.251783 -0.004,0.07605 -0.13003,0.360673 -0.28077,0.632502 -0.15074,0.271829 -0.39175,0.725906 -0.53558,1.009061 -0.14383,0.283155 -0.29478,0.514827 -0.33545,0.514827 -0.0407,0 -0.0965,0.08994 -0.1241,0.199868 -0.0276,0.109928 -0.12097,0.263943 -0.2075,0.342256 -0.0865,0.07831 -0.15734,0.192244 -0.15734,0.25318 0,0.06094 -0.0334,0.110791 -0.0742,0.110791 -0.0408,0 -0.15117,0.12047 -0.24522,0.26771 -0.094,0.147241 -0.21817,0.336846 -0.27584,0.421346 -0.22166,0.324752 -1.61591,1.774871 -2.10946,2.193976 -0.67761,0.575408 -1.65831,1.317957 -1.74065,1.317957 -0.0329,0 -0.14534,0.07413 -0.24981,0.164745 -0.10448,0.09061 -0.23592,0.164744 -0.2921,0.164744 -0.0562,0 -0.12213,0.05211 -0.14657,0.115791 -0.0244,0.06368 -0.16065,0.141315 -0.30268,0.172512 -0.14204,0.0312 -0.27825,0.108827 -0.30269,0.172513 -0.0244,0.06368 -0.1096,0.11579 -0.18925,0.11579 -0.0796,0 -0.23907,0.07414 -0.35426,0.164745 -0.1152,0.09061 -0.282,0.164745 -0.37068,0.164745 -0.0887,0 -0.25548,0.07413 -0.37067,0.164744 -0.1152,0.09061 -0.27773,0.16499 -0.3612,0.165288 -0.0835,3.29e-4 -0.26295,0.07419 -0.39887,0.164202 -0.13591,0.09001 -0.33065,0.163903 -0.43275,0.164201 -0.1021,3.3e-4 -0.32395,0.07468 -0.49301,0.165288 -0.16906,0.09061 -0.41913,0.164973 -0.55572,0.165252 -0.13658,2.47e-4 -0.35321,0.05521 -0.48139,0.122062 -0.12818,0.06685 -0.50946,0.15587 -0.8473,0.197812 -0.33783,0.04194 -0.66086,0.114947 -0.71783,0.162232 -0.127,0.1054 -4.41555,0.408546 -4.5033,0.318326 z m 2.32414,-5.281515 c 0.19413,-0.06316 0.6495,-0.139445 1.01194,-0.169516 0.36244,-0.03007 0.74108,-0.108128 0.84142,-0.17346 0.10034,-0.06533 0.28711,-0.118788 0.41504,-0.118788 0.12793,0 0.36977,-0.06993 0.53742,-0.15541 0.16766,-0.08548 0.43125,-0.179125 0.58575,-0.20811 0.15451,-0.02899 0.32625,-0.107322 0.38165,-0.174079 0.0554,-0.06676 0.16466,-0.121379 0.2428,-0.121379 0.0781,0 0.22753,-0.07413 0.332,-0.164745 0.10448,-0.09061 0.23724,-0.164745 0.29502,-0.164745 0.0578,0 0.15406,-0.04716 0.21392,-0.104798 0.0599,-0.05764 0.33126,-0.250532 0.60309,-0.428652 0.5827,-0.381824 1.86573,-1.640223 2.26959,-2.226022 0.15617,-0.226524 0.31348,-0.433654 0.34958,-0.460288 0.0786,-0.058 0.34059,-0.521526 0.47313,-0.837077 0.0523,-0.124588 0.12609,-0.226523 0.16391,-0.226523 0.0378,0 0.0926,-0.0834 0.12176,-0.185338 0.0566,-0.197795 0.29359,-0.732805 0.54551,-1.231312 0.0847,-0.167542 0.15395,-0.390967 0.15395,-0.496498 0,-0.105532 0.0544,-0.26956 0.12091,-0.364506 0.0665,-0.09495 0.1458,-0.334868 0.1762,-0.533156 0.0304,-0.198288 0.10311,-0.455548 0.16156,-0.571688 0.0584,-0.116139 0.13231,-0.449747 0.16413,-0.741351 0.0318,-0.291603 0.096,-0.603754 0.14263,-0.693667 0.0799,-0.154024 0.19372,-1.230599 0.39275,-3.713919 0.0603,-0.752398 0.0601,-1.397529 -4.9e-4,-2.141681 -0.20526,-2.517625 -0.30708,-3.463868 -0.38935,-3.618482 -0.0482,-0.09061 -0.11369,-0.40333 -0.14551,-0.694933 -0.0318,-0.291604 -0.10567,-0.625212 -0.16412,-0.741351 -0.0585,-0.11614 -0.13116,-0.373399 -0.16156,-0.571688 -0.0304,-0.198288 -0.1097,-0.438208 -0.1762,-0.533155 -0.0665,-0.09495 -0.12095,-0.258975 -0.12095,-0.364507 0,-0.105531 -0.0696,-0.328956 -0.15472,-0.496498 -0.15585,-0.306855 -0.45064,-0.940518 -0.54408,-1.169532 -0.0277,-0.06796 -0.14105,-0.271829 -0.25182,-0.453048 -0.11078,-0.181219 -0.25636,-0.446563 -0.32351,-0.589653 -0.0672,-0.143089 -0.15083,-0.272826 -0.18593,-0.288303 -0.0351,-0.01548 -0.17468,-0.194944 -0.31017,-0.398815 -0.45572,-0.685724 -1.67519,-1.92905 -2.26546,-2.309766 -0.20418,-0.131694 -0.42547,-0.286753 -0.49177,-0.344575 -0.1469,-0.128128 -0.38725,-0.272985 -0.662,-0.398973 -0.11326,-0.05194 -0.26153,-0.12781 -0.32949,-0.168604 -0.0679,-0.04079 -0.21623,-0.115187 -0.32949,-0.165319 -0.11326,-0.05013 -0.35826,-0.161065 -0.54444,-0.246519 -0.18618,-0.08545 -0.40859,-0.15655 -0.49423,-0.157991 -0.0857,-0.0014 -0.22474,-0.05489 -0.30909,-0.118782 -0.0844,-0.06389 -0.36236,-0.139893 -0.61779,-0.168896 -0.25544,-0.029 -0.59417,-0.114555 -0.75273,-0.190114 -0.24863,-0.118473 -0.61707,-0.13738 -2.6771,-0.13738 -2.05461,0 -2.42914,0.01912 -2.6771,0.136686 -0.15857,0.07518 -0.49218,0.160796 -0.74136,0.190263 -0.24917,0.02947 -0.52718,0.101368 -0.61779,0.159782 -0.0906,0.05841 -0.30002,0.131313 -0.46536,0.162 -0.16534,0.03069 -0.34595,0.110413 -0.40136,0.177172 -0.0554,0.06676 -0.16691,0.121378 -0.24779,0.121378 -0.16332,0 -0.96576,0.391908 -1.13602,0.554822 -0.0599,0.05729 -0.15606,0.104157 -0.21375,0.104157 -0.0577,0 -0.172,0.07413 -0.254,0.164744 -0.082,0.09061 -0.19071,0.164745 -0.24158,0.164745 -0.0509,0 -0.15179,0.06487 -0.22427,0.144152 -0.0725,0.07928 -0.29334,0.273888 -0.4908,0.432454 -0.65844,0.528762 -1.72046,1.691018 -1.72046,1.882851 0,0.05175 -0.0308,0.09408 -0.0685,0.09408 -0.0377,0 -0.17676,0.176071 -0.30907,0.391269 -0.13232,0.215197 -0.28758,0.465403 -0.34502,0.556013 -0.0574,0.09061 -0.16152,0.275947 -0.23128,0.411861 -0.0698,0.135915 -0.17968,0.339786 -0.24425,0.453048 -0.0646,0.113262 -0.11795,0.270799 -0.11862,0.350083 -6.6e-4,0.07928 -0.0368,0.144151 -0.0804,0.144151 -0.0436,0 -0.12133,0.156459 -0.17282,0.347686 -0.0515,0.191229 -0.14559,0.421881 -0.2091,0.512563 -0.0635,0.09068 -0.11549,0.249432 -0.11549,0.352777 0,0.103346 -0.0741,0.32622 -0.16474,0.495279 -0.0906,0.169058 -0.16498,0.437663 -0.16526,0.5969 -2.8e-4,0.159238 -0.0591,0.400726 -0.13077,0.53664 -0.0717,0.135915 -0.16087,0.567873 -0.19826,0.959907 -0.0374,0.392034 -0.11755,0.799777 -0.17812,0.906096 -0.16131,0.283132 -0.16131,7.516987 0,7.80012 0.0606,0.106319 0.14072,0.514062 0.17812,0.906096 0.0374,0.392034 0.12661,0.823992 0.19826,0.959907 0.0717,0.135914 0.13175,0.376853 0.13357,0.53542 0.002,0.158566 0.0749,0.436573 0.16246,0.617792 0.0875,0.181219 0.16041,0.413026 0.16195,0.515125 0.002,0.102101 0.0769,0.323957 0.16754,0.493015 0.0906,0.169058 0.16474,0.368256 0.16474,0.442663 0,0.07441 0.0546,0.180616 0.12138,0.236021 0.0668,0.0554 0.14557,0.229707 0.17515,0.387338 0.0296,0.157631 0.10134,0.304859 0.15949,0.327172 0.0581,0.02231 0.12884,0.132711 0.15711,0.245328 0.0283,0.112616 0.17988,0.38756 0.33692,0.610987 0.15705,0.223426 0.28554,0.429059 0.28554,0.456963 0,0.132279 1.63661,2.010265 1.75189,2.010265 0.0324,0 0.17103,0.11737 0.30812,0.260824 0.13709,0.143453 0.31745,0.30099 0.4008,0.350082 0.0833,0.04909 0.31438,0.198412 0.5134,0.331822 0.57615,0.386206 1.7054,0.951835 1.9003,0.951835 0.0981,0 0.2416,0.05718 0.31883,0.127079 0.0772,0.06989 0.28402,0.14679 0.45954,0.170881 0.17551,0.02409 0.44885,0.09736 0.60741,0.162809 0.15857,0.06546 0.58485,0.152515 0.94728,0.193467 0.36244,0.04095 0.78872,0.11058 0.94729,0.154728 0.46619,0.129795 2.89923,0.116787 3.3126,-0.01771 z"
     style="opacity:1;fill:#2d2d2d;fill-opacity:1;stroke-width:0.01647446;stroke-miterlimit:4;stroke-dasharray:none" />
  <path
     id="path937"
     d="m 200.14128,67.737743 c -0.15593,-0.02195 -0.35879,-0.09263 -0.45079,-0.157072 -0.092,-0.06444 -0.22189,-0.117161 -0.28866,-0.117161 -0.16261,0 -0.74915,-0.403452 -0.95263,-0.655259 -0.42634,-0.527594 -0.55846,-0.804182 -0.6297,-1.318288 -0.0434,-0.313033 -0.0655,-8.125241 -0.0527,-18.633345 l 0.022,-18.094322 0.18533,-0.25067 c 0.10194,-0.137869 0.18534,-0.294933 0.18534,-0.349032 0,-0.133809 0.64233,-0.724807 0.94728,-0.871579 0.13592,-0.06542 0.35832,-0.179462 0.49424,-0.253437 0.19099,-0.103955 0.48095,-0.134635 1.27677,-0.135092 0.98813,-5.67e-4 1.04626,0.0091 1.44151,0.239044 0.22653,0.131798 0.44151,0.287816 0.47774,0.346705 0.0362,0.05889 0.11713,0.107071 0.17978,0.107071 0.0627,0 0.13745,0.07413 0.16621,0.164744 0.0288,0.09061 0.0816,0.164745 0.11741,0.164745 0.0358,0 0.16912,0.194605 0.29622,0.432455 l 0.23109,0.432454 0.0375,2.70402 c 0.0297,2.146032 0.0601,2.712687 0.14691,2.746018 0.158,0.06063 0.50953,-0.222701 0.60482,-0.48748 0.0449,-0.124795 0.21326,-0.425172 0.37411,-0.667505 0.16085,-0.242333 0.29246,-0.464569 0.29246,-0.493859 0,-0.02929 0.0649,-0.12264 0.14415,-0.207447 0.0793,-0.08481 0.27291,-0.316479 0.43028,-0.514827 0.52125,-0.656966 1.97299,-2.049266 2.13676,-2.049266 0.0492,0 0.0895,-0.03082 0.0895,-0.0685 0,-0.08043 0.76722,-0.590479 0.8882,-0.590479 0.0454,0 0.10264,-0.05211 0.12707,-0.115791 0.0244,-0.06368 0.16065,-0.141316 0.30269,-0.172512 0.14203,-0.0312 0.27684,-0.105184 0.29957,-0.164416 0.0227,-0.05923 0.16492,-0.130879 0.31597,-0.159217 0.15106,-0.02834 0.29559,-0.106117 0.3212,-0.172842 0.0256,-0.06673 0.13112,-0.121562 0.23448,-0.121861 0.10335,-2.98e-4 0.29912,-0.07419 0.43504,-0.164201 0.13591,-0.09001 0.33065,-0.163904 0.43275,-0.164202 0.1021,-2.97e-4 0.32396,-0.07468 0.49301,-0.165288 0.16906,-0.09061 0.4006,-0.166002 0.51453,-0.167539 0.11394,-0.0015 0.35542,-0.07441 0.53664,-0.16195 0.18122,-0.08754 0.4963,-0.162039 0.70017,-0.165565 0.20387,-0.0035 0.51894,-0.06095 0.70016,-0.127613 0.18856,-0.06936 0.88495,-0.1544 1.6281,-0.198816 0.71423,-0.04269 1.41852,-0.09974 1.56507,-0.126787 0.45418,-0.08381 1.72344,0.166632 2.08671,0.411743 0.58925,0.397584 0.78879,0.756662 1.02463,1.843874 0.0868,0.400104 0.0285,0.920114 -0.13912,1.241325 -0.0605,0.115941 -0.11024,0.279602 -0.11051,0.363692 -5e-4,0.148088 -0.46024,0.803932 -0.6074,0.866467 -0.04,0.01699 -0.14023,0.09844 -0.22279,0.180992 -0.0825,0.08256 -0.29876,0.190134 -0.48046,0.239059 -0.18169,0.04893 -0.3499,0.120586 -0.37379,0.159245 -0.0239,0.03866 -0.36834,0.09565 -0.76543,0.12664 -0.39709,0.03099 -0.94438,0.106747 -1.21621,0.168341 -0.27183,0.06159 -0.96378,0.13241 -1.53767,0.157367 -0.59526,0.02589 -1.17904,0.09641 -1.35915,0.1642 -0.17363,0.06535 -0.53811,0.136832 -0.80994,0.158842 -0.27182,0.02201 -0.60543,0.09897 -0.74135,0.17103 -0.13591,0.07206 -0.34033,0.13124 -0.45426,0.131519 -0.11394,2.8e-4 -0.34547,0.07464 -0.51453,0.165252 -0.16906,0.09061 -0.379,0.164745 -0.46654,0.164745 -0.0875,0 -0.21526,0.0561 -0.28382,0.124662 -0.0686,0.06856 -0.2412,0.147969 -0.38364,0.176457 -0.14244,0.02849 -0.27701,0.09878 -0.29904,0.156207 -0.022,0.05743 -0.12641,0.126083 -0.23194,0.152569 -0.23628,0.0593 -0.86705,0.465206 -0.86705,0.557949 0,0.03726 -0.0525,0.06774 -0.11656,0.06774 -0.30648,0 -2.35461,2.11729 -2.35461,2.434113 0,0.02038 -0.0579,0.101925 -0.12868,0.181208 -0.21724,0.243357 -0.5303,0.763063 -0.5303,0.880348 0,0.0611 -0.0536,0.131639 -0.11901,0.156757 -0.0655,0.02512 -0.14372,0.177355 -0.17391,0.338302 -0.0302,0.160948 -0.0864,0.292632 -0.1248,0.292632 -0.0384,0 -0.11562,0.157538 -0.17149,0.350083 -0.0559,0.192545 -0.14587,0.424217 -0.19999,0.514827 -0.0541,0.09061 -0.12416,0.311122 -0.15564,0.490027 -0.0315,0.178905 -0.10978,0.400292 -0.17399,0.49197 -0.0642,0.09168 -0.11838,0.315975 -0.12037,0.49844 -0.002,0.182465 -0.066,0.480024 -0.14214,0.661243 -0.12684,0.301688 -0.14217,1.302553 -0.18172,11.861615 -0.0403,10.771887 -0.0527,11.548416 -0.18684,11.779242 -0.079,0.135914 -0.14387,0.324848 -0.14415,0.419851 -2.8e-4,0.095 -0.0654,0.249724 -0.14466,0.343822 -0.0793,0.0941 -0.23642,0.285108 -0.34918,0.424465 -0.11277,0.139358 -0.25293,0.253378 -0.31148,0.253378 -0.0585,0 -0.12692,0.05334 -0.15194,0.118524 -0.025,0.06519 -0.16285,0.14345 -0.30631,0.173913 -0.14346,0.03046 -0.32004,0.107484 -0.3924,0.171158 -0.13912,0.122414 -1.43382,0.214782 -1.96413,0.140127 z"
     style="opacity:1;fill:#2d2d2d;fill-opacity:1;stroke-width:0.01647446;stroke-miterlimit:4;stroke-dasharray:none" />
  <path
     id="path939"
     d="m 245.77043,67.719528 c -0.47587,-0.03107 -0.91257,-0.08575 -0.97044,-0.121515 -0.0579,-0.03576 -0.5918,-0.09952 -1.18653,-0.141694 -0.59473,-0.04217 -1.12606,-0.113792 -1.18072,-0.159162 -0.0547,-0.04537 -0.35744,-0.114891 -0.67282,-0.154492 -0.31539,-0.0396 -0.68922,-0.131882 -0.83075,-0.205068 -0.14153,-0.07319 -0.35196,-0.133066 -0.46764,-0.133066 -0.11568,0 -0.34864,-0.07413 -0.5177,-0.164744 -0.16906,-0.09061 -0.39475,-0.164745 -0.50153,-0.164745 -0.10679,0 -0.28841,-0.07413 -0.4036,-0.164745 -0.11519,-0.09061 -0.26346,-0.164744 -0.32949,-0.164744 -0.066,0 -0.2143,-0.07414 -0.32949,-0.164745 -0.11519,-0.09061 -0.27639,-0.164745 -0.35821,-0.164745 -0.0818,0 -0.17402,-0.04085 -0.20488,-0.09078 -0.0309,-0.04993 -0.18131,-0.143094 -0.33435,-0.207037 -0.15304,-0.06394 -0.27825,-0.152829 -0.27825,-0.197526 0,-0.0447 -0.0396,-0.08127 -0.0879,-0.08127 -0.26601,0 -1.84181,-1.465979 -2.27175,-2.113431 -0.15515,-0.233639 -0.33637,-0.46985 -0.40272,-0.524913 -0.0663,-0.05506 -0.12063,-0.14853 -0.12063,-0.207704 0,-0.05917 -0.0482,-0.15657 -0.10718,-0.216437 -0.16818,-0.170785 -0.88129,-1.675147 -0.88129,-1.859138 0,-0.09091 -0.0516,-0.208089 -0.1146,-0.260402 -0.063,-0.05231 -0.14006,-0.269988 -0.17116,-0.483726 -0.0311,-0.213738 -0.1037,-0.46275 -0.16131,-0.553359 -0.0576,-0.09061 -0.13019,-0.405684 -0.16129,-0.700165 -0.0311,-0.294481 -0.10906,-0.702224 -0.17323,-0.906096 -0.0681,-0.216318 -0.1704,-1.262513 -0.24571,-2.512355 -0.10486,-1.740019 -0.12876,-4.01371 -0.12748,-12.123441 10e-4,-8.965852 -0.0116,-9.994935 -0.12787,-10.111203 -0.11316,-0.113159 -0.52546,-0.129442 -3.27748,-0.129442 -2.9854,0 -3.16473,-0.0085 -3.47117,-0.164745 -0.17772,-0.09061 -0.36521,-0.164744 -0.41664,-0.164744 -0.15351,0 -0.70661,-0.583351 -0.82756,-0.87282 -0.0618,-0.14802 -0.15008,-0.292384 -0.19607,-0.320808 -0.0465,-0.02873 -0.0836,-0.378799 -0.0836,-0.788468 0,-0.579414 0.0352,-0.802442 0.16475,-1.044166 0.0906,-0.169058 0.16474,-0.355424 0.16474,-0.414149 0,-0.05872 0.0542,-0.127565 0.12043,-0.152981 0.0662,-0.02542 0.14286,-0.116921 0.17029,-0.203345 0.0274,-0.08642 0.0947,-0.157135 0.14957,-0.157135 0.0548,0 0.16318,-0.07413 0.24076,-0.164744 0.0776,-0.09061 0.20629,-0.164973 0.28602,-0.165253 0.0797,-2.47e-4 0.25616,-0.06515 0.39208,-0.144151 0.22101,-0.128474 0.57729,-0.146217 3.37336,-0.168005 2.07683,-0.01618 3.16212,-0.05413 3.23312,-0.113052 0.0851,-0.07067 0.10686,-0.989957 0.10686,-4.524216 0,-3.637079 0.0237,-4.594852 0.13149,-5.320615 0.0873,-0.587451 0.18423,-0.952129 0.28831,-1.084443 0.0862,-0.109644 0.15681,-0.237775 0.15681,-0.284736 0,-0.13157 0.70437,-0.775951 0.92018,-0.84181 0.10552,-0.0322 0.2606,-0.119027 0.34464,-0.192952 0.12659,-0.11135 0.3618,-0.134408 1.37109,-0.134408 1.00929,0 1.2445,0.02306 1.37109,0.134408 0.084,0.07393 0.23676,0.160002 0.33938,0.191284 0.24243,0.0739 0.92544,0.695901 0.92544,0.842774 0,0.06241 0.052,0.133413 0.11547,0.157782 0.0635,0.02437 0.14081,0.179461 0.1718,0.344651 0.031,0.165189 0.10877,0.40172 0.17284,0.525623 0.0966,0.186818 0.1165,1.066982 0.1165,5.155236 0,3.724579 0.0242,4.954123 0.0988,5.028802 0.0746,0.07459 1.28248,0.09929 4.92174,0.100656 4.62702,0.0017 4.83749,0.0084 5.18198,0.164744 0.19749,0.08961 0.40761,0.162936 0.46693,0.162936 0.17631,0 0.76405,0.575698 1.0021,0.981562 0.20529,0.350018 0.22122,0.444706 0.21834,1.297095 -0.003,0.919182 -0.003,0.919642 -0.28343,1.276075 -0.37989,0.483219 -0.64959,0.711017 -0.91301,0.771167 -0.12146,0.02773 -0.265,0.103642 -0.31898,0.168687 -0.0833,0.100397 -0.85483,0.118264 -5.10689,0.118264 -4.48661,0 -5.02252,0.01377 -5.14086,0.132118 -0.12023,0.120223 -0.13003,1.186272 -0.10885,11.841021 0.0213,10.700702 0.0351,11.737274 0.16032,12.038393 0.0754,0.181219 0.15764,0.529178 0.1828,0.773241 0.0252,0.244064 0.10248,0.506455 0.17184,0.583093 0.0694,0.07664 0.1261,0.218062 0.1261,0.314278 0,0.426179 1.00463,1.998442 1.5642,2.448004 0.11278,0.09061 0.2623,0.220346 0.33226,0.288303 0.11231,0.109092 0.41295,0.312947 0.94538,0.641032 0.0906,0.05583 0.25742,0.142532 0.37068,0.192663 0.11326,0.05013 0.35826,0.161065 0.54444,0.246519 0.18618,0.08545 0.43769,0.155371 0.55891,0.155371 0.12122,0 0.30756,0.05711 0.41409,0.126909 0.11757,0.07703 0.48062,0.146198 0.92379,0.175992 0.40156,0.02699 0.79957,0.08485 0.88447,0.12857 0.0849,0.04372 0.84081,0.114402 1.67981,0.157074 1.09903,0.0559 1.57334,0.111126 1.69675,0.197569 0.0942,0.06599 0.26858,0.119982 0.38748,0.119982 0.11891,0 0.30167,0.07413 0.40614,0.164744 0.10448,0.09061 0.21947,0.164745 0.25555,0.164745 0.10371,0 0.56737,0.523981 0.56779,0.641667 2.5e-4,0.05844 0.0745,0.251564 0.16513,0.429173 0.10874,0.213139 0.16474,0.485484 0.16474,0.801069 0,0.320768 -0.0542,0.579311 -0.16474,0.785519 -0.0906,0.169059 -0.16475,0.357007 -0.16475,0.417664 0,0.13729 -0.72196,0.87878 -0.85563,0.87878 -0.0539,0 -0.24484,0.07897 -0.42431,0.1755 -0.28634,0.154 -0.48272,0.178187 -1.60309,0.19744 -0.70222,0.01207 -1.66612,-0.0035 -2.142,-0.03455 z"
     style="opacity:1;fill:#2d2d2d;fill-opacity:1;stroke-width:0.01647446;stroke-miterlimit:4;stroke-dasharray:none" />
  <path
     id="path941"
     d="m 274.44954,67.92336 c -0.0189,-0.01891 -0.75393,-0.07643 -1.63336,-0.127816 -0.87944,-0.05139 -1.67374,-0.13344 -1.76511,-0.182341 -0.0914,-0.0489 -0.46266,-0.122085 -0.82509,-0.162634 -0.36243,-0.04055 -0.70423,-0.111289 -0.75955,-0.157201 -0.0553,-0.04591 -0.33209,-0.12076 -0.61504,-0.166328 -0.28296,-0.04557 -0.59145,-0.136776 -0.68555,-0.202681 -0.0941,-0.06591 -0.26531,-0.119828 -0.38049,-0.119828 -0.11518,0 -0.34774,-0.07413 -0.51679,-0.164744 -0.16906,-0.09061 -0.35385,-0.164642 -0.41065,-0.164516 -0.0568,1.65e-4 -0.25153,-0.0707 -0.43275,-0.157396 -0.18122,-0.0867 -0.55189,-0.261275 -0.82372,-0.387957 -0.27183,-0.126681 -0.51277,-0.254728 -0.53542,-0.284548 -0.0227,-0.02982 -0.13051,-0.08213 -0.23967,-0.116231 -0.10917,-0.03411 -0.40571,-0.205857 -0.65898,-0.381669 -0.25327,-0.175813 -0.50683,-0.319707 -0.56346,-0.319767 -0.0566,-5.9e-5 -0.10297,-0.03515 -0.10297,-0.07798 0,-0.04283 -0.0858,-0.126234 -0.19062,-0.185337 -0.46039,-0.259546 -0.79785,-0.500056 -0.79785,-0.568645 0,-0.04083 -0.0543,-0.07424 -0.12066,-0.07424 -0.0664,0 -0.16033,-0.07413 -0.20882,-0.164745 -0.0485,-0.09061 -0.12234,-0.164744 -0.1641,-0.164744 -0.12043,0 -2.2373,-2.157984 -2.43063,-2.477845 -0.20043,-0.331595 -0.41606,-0.616232 -0.51285,-0.67699 -0.0577,-0.03623 -0.10494,-0.111393 -0.10494,-0.167031 0,-0.05564 -0.0741,-0.164635 -0.16475,-0.242217 -0.0906,-0.07758 -0.16474,-0.192485 -0.16474,-0.255338 0,-0.06285 -0.052,-0.157387 -0.11543,-0.210074 -0.0635,-0.05269 -0.21982,-0.307431 -0.34741,-0.566098 -0.12759,-0.258668 -0.29805,-0.558706 -0.3788,-0.666752 -0.0808,-0.108045 -0.14683,-0.261043 -0.14683,-0.339995 0,-0.07895 -0.0546,-0.188882 -0.12138,-0.244286 -0.0668,-0.05541 -0.14477,-0.225427 -0.17336,-0.377827 -0.0286,-0.1524 -0.10081,-0.317613 -0.16049,-0.36714 -0.0597,-0.04953 -0.13283,-0.234051 -0.16256,-0.410055 -0.0297,-0.176003 -0.10677,-0.363745 -0.17119,-0.417206 -0.0644,-0.05346 -0.11712,-0.195145 -0.11712,-0.314857 0,-0.119712 -0.0685,-0.346845 -0.15211,-0.504742 -0.0837,-0.157895 -0.17656,-0.470013 -0.20645,-0.693593 -0.0299,-0.223581 -0.1097,-0.491017 -0.17737,-0.594302 -0.0677,-0.103284 -0.12305,-0.35575 -0.12305,-0.561035 0,-0.205286 -0.0707,-0.586532 -0.15718,-0.847215 -0.0899,-0.271157 -0.17639,-0.826441 -0.20208,-1.297692 -0.0247,-0.453048 -0.093,-0.95346 -0.15172,-1.112027 -0.15317,-0.413443 -0.14979,-5.162869 0.004,-5.677005 0.0599,-0.200194 0.13865,-0.765865 0.175,-1.257046 0.0363,-0.491181 0.10836,-0.943998 0.16004,-1.006261 0.0517,-0.06226 0.11588,-0.367678 0.14269,-0.678702 0.0268,-0.311025 0.10062,-0.648621 0.16403,-0.750214 0.0634,-0.101593 0.13882,-0.361066 0.1676,-0.576606 0.0288,-0.21554 0.12078,-0.52108 0.20444,-0.678975 0.0837,-0.157897 0.15211,-0.392216 0.15211,-0.520711 0,-0.128495 0.0541,-0.287773 0.12033,-0.35395 0.0662,-0.06618 0.145,-0.258135 0.17517,-0.426572 0.0302,-0.168436 0.10288,-0.361849 0.16157,-0.429806 0.0587,-0.06796 0.1331,-0.234761 0.16537,-0.370675 0.0323,-0.135915 0.1064,-0.302719 0.16475,-0.370676 0.0583,-0.06796 0.13113,-0.223974 0.16176,-0.346703 0.0306,-0.12273 0.10527,-0.264295 0.16587,-0.314589 0.0606,-0.05029 0.13336,-0.196987 0.16169,-0.325986 0.0283,-0.129 0.10008,-0.253181 0.15944,-0.275959 0.0594,-0.02278 0.13417,-0.145973 0.16624,-0.273766 0.0321,-0.127793 0.0833,-0.251256 0.1138,-0.274363 0.10737,-0.0813 0.50807,-0.710897 0.50807,-0.798297 0,-0.04865 0.0545,-0.133699 0.12115,-0.189002 0.0666,-0.0553 0.2328,-0.2691 0.36925,-0.475104 0.80195,-1.210722 2.93991,-3.299161 4.11142,-4.016182 0.074,-0.0453 0.16423,-0.128706 0.20046,-0.185337 0.0362,-0.05663 0.11963,-0.102966 0.18533,-0.102966 0.0657,0 0.18485,-0.06487 0.26475,-0.144151 0.0799,-0.07928 0.23744,-0.191221 0.35008,-0.248751 0.11264,-0.05753 0.35307,-0.194764 0.53429,-0.304966 0.18122,-0.110202 0.38509,-0.223054 0.45305,-0.250782 0.22901,-0.09344 0.86268,-0.388229 1.16953,-0.54408 0.16754,-0.08509 0.37142,-0.15496 0.45305,-0.155259 0.0816,-2.98e-4 0.25963,-0.07419 0.39554,-0.164202 0.13592,-0.09001 0.34919,-0.163903 0.47394,-0.164202 0.12475,-2.96e-4 0.36514,-0.07468 0.5342,-0.165287 0.16906,-0.09061 0.43767,-0.164973 0.5969,-0.165252 0.15924,-2.79e-4 0.39889,-0.05754 0.53256,-0.12724 0.13367,-0.0697 0.57848,-0.158969 0.98847,-0.19837 0.40999,-0.0394 0.85663,-0.115863 0.99255,-0.169916 0.34746,-0.138186 4.72085,-0.138778 4.9789,-6.75e-4 0.10144,0.05429 0.53319,0.131702 0.95943,0.172029 0.42625,0.04033 0.88436,0.129877 1.01803,0.199 0.13367,0.06912 0.38443,0.125679 0.55724,0.125679 0.17282,0 0.45253,0.07413 0.62159,0.164745 0.16906,0.09061 0.38178,0.164745 0.47272,0.164745 0.0909,0 0.30366,0.07413 0.47272,0.164744 0.16905,0.09061 0.37621,0.164745 0.46035,0.164745 0.0841,0 0.24722,0.07414 0.36241,0.164745 0.11519,0.09061 0.26346,0.164744 0.32949,0.164744 0.066,0 0.21429,0.07414 0.32949,0.164745 0.11519,0.09061 0.27973,0.164744 0.36566,0.164744 0.0859,0 0.17755,0.0556 0.20363,0.123559 0.0261,0.06796 0.0866,0.123558 0.13453,0.123558 0.0479,0 0.46096,0.249941 0.91788,0.555425 0.82933,0.554471 2.70964,2.322201 3.35203,3.15133 0.35219,0.454579 1.23076,1.775091 1.36927,2.058058 0.0558,0.113949 0.13522,0.262782 0.17654,0.330739 0.0413,0.06796 0.11588,0.216228 0.16569,0.32949 0.0498,0.113262 0.12159,0.261532 0.15949,0.329489 0.26185,0.469469 0.42652,0.833647 0.42652,0.943306 0,0.07047 0.0741,0.266451 0.16474,0.435509 0.0906,0.169058 0.16475,0.383081 0.16475,0.475607 0,0.09253 0.0521,0.242668 0.11586,0.333648 0.0637,0.09098 0.14188,0.349434 0.17367,0.574342 0.0318,0.224908 0.1057,0.485383 0.16423,0.578834 0.0585,0.09345 0.13331,0.42706 0.16617,0.741351 0.0329,0.314292 0.10617,0.664108 0.16291,0.77737 0.0567,0.113262 0.12986,0.60549 0.16248,1.093841 0.0326,0.48835 0.11085,1.081431 0.17382,1.317957 0.16224,0.609427 0.1622,3.356324 -6e-5,3.670097 -0.0641,0.123905 -0.14233,0.363003 -0.17391,0.531331 -0.0316,0.168327 -0.0841,0.306049 -0.1167,0.306049 -0.0326,0 -0.10683,0.08885 -0.16495,0.197435 -0.20644,0.385743 -0.72226,0.633859 -1.48462,0.714118 -0.38653,0.04069 -6.60311,0.07465 -13.81461,0.07545 l -13.11181,0.0015 -0.16354,0.207905 c -0.13161,0.167312 -0.1493,0.25979 -0.0906,0.473641 0.0401,0.146155 0.10789,0.795652 0.15062,1.443329 0.0427,0.647676 0.11606,1.223832 0.16297,1.280346 0.0469,0.05651 0.10993,0.360617 0.14006,0.675784 0.0301,0.315167 0.10065,0.647166 0.1567,0.737776 0.056,0.09061 0.12876,0.350082 0.16159,0.576606 0.0328,0.226524 0.11241,0.49396 0.17684,0.594302 0.0644,0.100341 0.11714,0.250041 0.11714,0.332664 0,0.08263 0.072,0.291421 0.15996,0.463992 0.088,0.172571 0.18304,0.418787 0.21123,0.547146 0.0282,0.128358 0.10448,0.277547 0.16952,0.33153 0.065,0.05398 0.11827,0.162747 0.11827,0.2417 0,0.07895 0.0741,0.237797 0.16474,0.352988 0.0906,0.115191 0.16474,0.265813 0.16474,0.334714 0,0.0689 0.0472,0.174258 0.10496,0.234125 0.0577,0.05987 0.22315,0.294187 0.3676,0.520711 0.14446,0.226524 0.31963,0.470572 0.38928,0.54233 0.0697,0.07176 0.12663,0.152135 0.12663,0.178616 0,0.02648 0.14827,0.202467 0.32949,0.39108 0.18122,0.188613 0.32949,0.376975 0.32949,0.418583 0,0.04161 0.0334,0.07565 0.0742,0.07565 0.0408,0 0.29502,0.213138 0.56488,0.473641 0.58628,0.565947 0.93337,0.84171 1.06131,0.843211 0.0518,5.77e-4 0.11549,0.05671 0.14157,0.124664 0.0261,0.06796 0.0985,0.123558 0.16095,0.123558 0.0625,0 0.19902,0.07413 0.3035,0.164745 0.10447,0.09061 0.25017,0.164744 0.32378,0.164744 0.0736,0 0.19731,0.07414 0.2749,0.164745 0.0776,0.09061 0.22955,0.164745 0.33771,0.164745 0.10815,0 0.24198,0.05462 0.29738,0.121379 0.0554,0.06676 0.22715,0.145093 0.38166,0.174079 0.1545,0.02898 0.41809,0.122635 0.58574,0.20811 0.16766,0.08548 0.4095,0.15541 0.53743,0.15541 0.12793,0 0.31469,0.05254 0.41504,0.116762 0.10034,0.06422 0.44191,0.141937 0.75904,0.172705 0.31713,0.03077 0.74189,0.110152 0.9439,0.176407 0.28435,0.09326 0.86206,0.120876 2.55835,0.122291 2.08304,0.0017 2.73702,-0.0379 2.92279,-0.177157 0.0453,-0.03396 0.36648,-0.08759 0.71373,-0.119187 0.34724,-0.03159 0.69938,-0.108998 0.78253,-0.172011 0.0832,-0.06301 0.26382,-0.115749 0.40148,-0.11719 0.13766,-0.0014 0.38747,-0.07255 0.55512,-0.15803 0.16766,-0.08548 0.43124,-0.179125 0.58575,-0.20811 0.1545,-0.02899 0.32625,-0.107322 0.38165,-0.174079 0.0554,-0.06676 0.17226,-0.121379 0.25967,-0.121379 0.0874,0 0.29601,-0.06962 0.46356,-0.154717 0.16754,-0.08509 0.48996,-0.238835 0.71648,-0.341647 0.22652,-0.102813 0.46746,-0.218797 0.53542,-0.257743 0.068,-0.03895 0.21623,-0.11157 0.32949,-0.161386 0.11326,-0.04982 0.26153,-0.123951 0.32949,-0.164745 0.12096,-0.07261 0.32989,-0.172667 0.5766,-0.276134 0.068,-0.0285 0.27183,-0.141212 0.45305,-0.250471 0.18122,-0.10926 0.44544,-0.251979 0.58715,-0.317155 0.14171,-0.06518 0.28113,-0.156499 0.30984,-0.202941 0.0287,-0.04644 0.15986,-0.10809 0.29147,-0.136996 0.13161,-0.02891 0.25976,-0.105894 0.28478,-0.171083 0.025,-0.06519 0.11578,-0.118524 0.2017,-0.118524 0.0859,0 0.25047,-0.07413 0.36566,-0.164745 0.11519,-0.09061 0.28713,-0.164745 0.38208,-0.164745 0.095,0 0.31097,-0.07413 0.48003,-0.164744 0.16905,-0.09061 0.40114,-0.164745 0.51574,-0.164745 0.11461,0 0.34669,0.07413 0.51575,0.164745 0.16906,0.09061 0.35094,0.164744 0.40417,0.164744 0.12799,0 0.8099,0.714781 0.8099,0.848939 0,0.05758 0.0741,0.250107 0.16475,0.427832 0.11878,0.232992 0.16474,0.485765 0.16474,0.906096 0,0.420331 -0.046,0.673104 -0.16474,0.906095 -0.0906,0.177726 -0.16475,0.389435 -0.16475,0.470465 0,0.08103 -0.0361,0.147328 -0.0802,0.147328 -0.0442,0 -0.13446,0.104806 -0.2007,0.232903 -0.0662,0.128097 -0.31505,0.428538 -0.5529,0.667645 -0.42804,0.430299 -0.68377,0.623062 -1.50342,1.133256 -0.23221,0.144539 -0.46536,0.300573 -0.51811,0.346743 -0.0528,0.04617 -0.19475,0.10875 -0.31555,0.139069 -0.1208,0.03032 -0.23914,0.105956 -0.26298,0.168084 -0.0238,0.06213 -0.10852,0.112959 -0.18817,0.112959 -0.0797,0 -0.23323,0.0693 -0.34127,0.15401 -0.10805,0.08471 -0.31436,0.179757 -0.45847,0.211225 -0.14411,0.03147 -0.30297,0.106557 -0.35302,0.166863 -0.05,0.0603 -0.21569,0.133039 -0.36809,0.16163 -0.1524,0.02859 -0.32242,0.106603 -0.37782,0.173361 -0.0554,0.06676 -0.18015,0.121379 -0.27721,0.121379 -0.0971,0 -0.31479,0.07413 -0.48385,0.164744 -0.16906,0.09061 -0.37293,0.164745 -0.45305,0.164745 -0.0801,0 -0.28399,0.07413 -0.45304,0.164745 -0.16906,0.09061 -0.40945,0.166002 -0.5342,0.167539 -0.12476,0.0015 -0.3751,0.07442 -0.55632,0.16195 -0.18122,0.08754 -0.47033,0.160413 -0.64247,0.16195 -0.17214,0.0015 -0.4261,0.06129 -0.56435,0.132777 -0.13824,0.07149 -0.53642,0.15872 -0.88483,0.193844 -0.34841,0.03512 -0.7088,0.104171 -0.80086,0.15344 -0.2383,0.127533 -4.71095,0.417344 -4.81622,0.312073 z m 10.94597,-23.622947 c 0.1254,-0.125406 0.13107,-1.865242 0.008,-2.331137 -0.048,-0.181219 -0.13161,-0.667952 -0.18574,-1.081629 -0.0541,-0.413677 -0.13875,-0.802886 -0.18805,-0.864909 -0.0493,-0.06202 -0.11492,-0.311453 -0.14582,-0.554287 -0.0309,-0.242836 -0.10581,-0.520842 -0.16646,-0.617793 -0.0607,-0.09695 -0.13395,-0.311553 -0.16289,-0.476894 -0.0289,-0.165341 -0.10723,-0.34595 -0.17399,-0.401355 -0.0667,-0.0554 -0.12137,-0.183193 -0.12137,-0.283977 0,-0.100782 -0.0741,-0.268719 -0.16475,-0.373192 -0.0906,-0.104474 -0.16474,-0.243303 -0.16474,-0.308508 0,-0.0652 -0.0741,-0.212803 -0.16475,-0.327994 -0.0906,-0.115191 -0.16474,-0.254296 -0.16474,-0.309122 0,-0.05483 -0.0741,-0.166774 -0.16475,-0.248775 -0.0906,-0.082 -0.16474,-0.186442 -0.16474,-0.232094 0,-0.08357 -0.86177,-1.157608 -1.20103,-1.496869 -0.4461,-0.446097 -1.52297,-1.260544 -1.9703,-1.490153 -0.13592,-0.06976 -0.33979,-0.179673 -0.45305,-0.244246 -0.11326,-0.06457 -0.26626,-0.117952 -0.34,-0.11862 -0.0737,-6.67e-4 -0.17939,-0.05583 -0.2348,-0.122593 -0.0554,-0.06676 -0.23601,-0.146485 -0.40135,-0.177172 -0.16534,-0.03069 -0.37476,-0.102913 -0.46537,-0.160505 -0.0906,-0.05759 -0.35008,-0.129266 -0.5766,-0.159275 -0.22653,-0.03001 -0.5416,-0.115749 -0.70017,-0.190533 -0.24713,-0.116555 -0.62355,-0.1358 -2.63591,-0.134767 -2.01621,10e-4 -2.38831,0.02053 -2.63592,0.138106 -0.15856,0.0753 -0.50033,0.161737 -0.75948,0.192093 -0.25914,0.03036 -0.51389,0.106661 -0.5661,0.169567 -0.0522,0.06291 -0.17752,0.114376 -0.27847,0.114376 -0.25079,0 -0.70237,0.164061 -0.70237,0.255175 0,0.04087 -0.0707,0.07431 -0.15714,0.07431 -0.19485,0 -1.01354,0.411121 -1.10313,0.553958 -0.0362,0.05776 -0.13853,0.105021 -0.22733,0.105021 -0.0888,0 -0.22494,0.07413 -0.30252,0.164744 -0.0776,0.09061 -0.18658,0.164745 -0.24222,0.164745 -0.0556,0 -0.1308,0.04722 -0.16703,0.104943 -0.0362,0.05772 -0.15984,0.164556 -0.27469,0.237416 -0.37317,0.236735 -1.97405,1.873273 -1.97405,2.018022 0,0.02094 -0.10819,0.174906 -0.24042,0.342143 -0.24728,0.312738 -0.50591,0.724608 -0.68232,1.086603 -0.0552,0.113262 -0.1667,0.294332 -0.24778,0.402377 -0.0811,0.108045 -0.14743,0.269002 -0.14743,0.357683 0,0.08868 -0.0741,0.255484 -0.16475,0.370675 -0.0906,0.115191 -0.16474,0.29257 -0.16474,0.394175 0,0.101605 -0.0527,0.228477 -0.11712,0.281936 -0.0644,0.05346 -0.14259,0.252604 -0.17372,0.442542 -0.0311,0.189937 -0.10416,0.400941 -0.1623,0.468898 -0.0581,0.06796 -0.13287,0.326533 -0.16607,0.574612 -0.0332,0.24808 -0.10695,0.526087 -0.1639,0.617793 -0.0569,0.09171 -0.1267,0.426212 -0.155,0.743345 -0.0283,0.317133 -0.10518,0.724876 -0.17085,0.906096 -0.1763,0.486519 -0.16603,1.328009 0.0175,1.434917 0.22319,0.129996 23.10297,0.120269 23.23312,-0.0099 z"
     style="opacity:1;fill:#2d2d2d;fill-opacity:1;stroke-width:0.01647446;stroke-miterlimit:4;stroke-dasharray:none" />
  <path
     id="path943"
     d="m 300.40374,67.250717 c -0.11326,-0.06285 -0.28433,-0.114814 -0.38016,-0.115482 -0.0958,-6.68e-4 -0.26847,-0.07535 -0.38366,-0.165959 -0.1152,-0.09061 -0.23718,-0.164745 -0.27108,-0.164745 -0.0819,0 -0.60172,-0.548893 -0.85966,-0.907833 -0.1956,-0.272186 -0.20593,-0.342966 -0.20593,-1.410546 0,-0.92208 0.0241,-1.151427 0.13441,-1.276771 0.0739,-0.08404 0.16202,-0.245459 0.19577,-0.358721 0.0338,-0.113262 0.11174,-0.261532 0.17329,-0.329489 0.0616,-0.06796 0.37516,-0.457167 0.69688,-0.86491 0.32173,-0.407743 0.61881,-0.753707 0.66018,-0.768808 0.0414,-0.0151 0.0752,-0.06645 0.0752,-0.114113 0,-0.04766 0.0834,-0.166412 0.18534,-0.263892 0.18513,-0.177036 0.51486,-0.569119 0.94556,-1.124363 0.12553,-0.161832 0.28384,-0.353128 0.3518,-0.425101 0.068,-0.07197 0.2533,-0.289641 0.41186,-0.483707 0.15857,-0.194066 0.34391,-0.412913 0.41186,-0.486326 0.068,-0.07341 0.25138,-0.297883 0.40759,-0.498822 0.15622,-0.20094 0.33229,-0.394988 0.39127,-0.431218 0.059,-0.03623 0.10724,-0.09807 0.10724,-0.13743 0,-0.03936 0.139,-0.221679 0.3089,-0.405159 0.35093,-0.378999 0.43053,-0.474332 0.60007,-0.718688 0.12661,-0.182486 0.77925,-0.948235 1.17881,-1.383124 0.12892,-0.140322 0.32846,-0.394134 0.4434,-0.564026 0.11495,-0.169893 0.24114,-0.308897 0.28042,-0.308897 0.0393,0 0.0714,-0.0543 0.0714,-0.12066 0,-0.06636 0.0741,-0.160336 0.16475,-0.208829 0.0906,-0.04849 0.16474,-0.12389 0.16474,-0.167549 0,-0.04366 0.139,-0.224513 0.3089,-0.401897 0.16989,-0.177385 0.38303,-0.425289 0.47364,-0.550897 0.0906,-0.125608 0.23888,-0.312023 0.32949,-0.414255 0.0906,-0.102232 0.29448,-0.342746 0.45304,-0.534474 0.15857,-0.191729 0.37615,-0.444038 0.48352,-0.560686 0.10736,-0.116647 0.29248,-0.341824 0.41137,-0.50039 0.11889,-0.158567 0.26272,-0.317946 0.31962,-0.354176 0.0569,-0.03623 0.10345,-0.09941 0.10345,-0.140407 0,-0.04099 0.0834,-0.164309 0.18534,-0.274031 0.43174,-0.464726 0.69784,-0.774838 0.92848,-1.082046 0.13493,-0.179724 0.30093,-0.388115 0.36888,-0.46309 0.068,-0.07497 0.25164,-0.292136 0.40818,-0.482579 0.15655,-0.190444 0.36726,-0.43542 0.46825,-0.544393 0.10099,-0.108973 0.28777,-0.337846 0.41505,-0.508606 0.12729,-0.170761 0.27799,-0.340117 0.33489,-0.376347 0.0569,-0.03623 0.10345,-0.102333 0.10345,-0.146897 0,-0.04456 0.12974,-0.210762 0.28831,-0.369329 0.15856,-0.158566 0.2883,-0.307033 0.2883,-0.329925 0,-0.02289 0.14827,-0.195929 0.32949,-0.384524 0.18122,-0.188595 0.32949,-0.367088 0.32949,-0.39665 0,-0.02956 0.0834,-0.145336 0.18533,-0.257274 0.10194,-0.111937 0.31508,-0.360357 0.47365,-0.552044 0.15856,-0.191686 0.44502,-0.522524 0.63657,-0.735194 0.19154,-0.21267 0.34908,-0.412789 0.35008,-0.444708 9.9e-4,-0.03192 0.0852,-0.145995 0.18715,-0.253503 0.2775,-0.292664 0.62497,-0.702289 1.06334,-1.253536 0.21616,-0.271829 0.44992,-0.552945 0.51945,-0.624703 0.0695,-0.07176 0.12644,-0.152223 0.12644,-0.178813 0,-0.02659 0.139,-0.194546 0.30889,-0.373238 0.4172,-0.438807 0.96051,-1.087941 1.00014,-1.194947 0.0177,-0.04791 0.15675,-0.211598 0.3089,-0.363746 0.15214,-0.152149 0.27663,-0.310625 0.27663,-0.352167 0,-0.04154 0.0501,-0.105177 0.11133,-0.141406 0.0612,-0.03623 0.36408,-0.380947 0.67298,-0.766038 0.3089,-0.38509 0.62021,-0.763253 0.6918,-0.840361 0.0716,-0.07711 0.17923,-0.198952 0.23922,-0.270764 0.72855,-0.872176 0.92058,-1.113329 0.92058,-1.156036 0,-0.02768 0.12974,-0.172684 0.28831,-0.322231 0.15856,-0.149548 0.2883,-0.293266 0.2883,-0.319374 0,-0.02611 0.13058,-0.188535 0.29018,-0.360949 0.33439,-0.361247 0.43066,-0.633929 0.28554,-0.808784 -0.0891,-0.107347 -1.54107,-0.122489 -11.74526,-0.122489 -11.49136,0 -11.64714,-0.0022 -11.91331,-0.164437 -0.14834,-0.09044 -0.3253,-0.165794 -0.39326,-0.167454 -0.18514,-0.0045 -0.7059,-0.562497 -0.94357,-1.011018 -0.27902,-0.526558 -0.30327,-1.603036 -0.0449,-1.99317 0.09,-0.135914 0.1639,-0.310681 0.1642,-0.38837 3e-4,-0.07769 0.0747,-0.18093 0.16529,-0.229423 0.0906,-0.04849 0.16474,-0.133676 0.16474,-0.189296 0,-0.102157 0.10355,-0.173568 0.5418,-0.373669 0.13241,-0.06045 0.35194,-0.171657 0.48786,-0.247117 0.22758,-0.126351 1.40828,-0.138898 14.93254,-0.158684 14.55958,-0.0213 14.68855,-0.02007 15.04903,0.144151 0.19997,0.0911 0.43331,0.165637 0.51851,0.165637 0.1847,0 1.25581,0.978695 1.25501,1.146726 -3.3e-4,0.06439 0.0643,0.188751 0.14359,0.276358 0.20525,0.226801 0.21182,1.974958 0.009,2.28367 -0.0746,0.113262 -0.16251,0.295753 -0.19542,0.405535 -0.0329,0.109782 -0.0918,0.239518 -0.13089,0.288303 -0.0391,0.04879 -0.16428,0.205253 -0.27823,0.347707 -0.11394,0.142455 -0.20717,0.298688 -0.20717,0.347185 0,0.0485 -0.0741,0.127852 -0.16474,0.176345 -0.0906,0.04849 -0.16475,0.120907 -0.16475,0.160921 0,0.04001 -0.139,0.219999 -0.30889,0.399967 -0.1699,0.179968 -0.38304,0.430854 -0.47365,0.557524 -0.0906,0.12667 -0.23888,0.313953 -0.32949,0.416186 -0.0906,0.102232 -0.29448,0.342746 -0.45304,0.534474 -0.15857,0.191729 -0.37615,0.444037 -0.48351,0.560685 -0.10737,0.116648 -0.29249,0.341824 -0.41138,0.500391 -0.11889,0.158567 -0.26272,0.317945 -0.31962,0.354175 -0.0569,0.03623 -0.10345,0.09807 -0.10345,0.13743 0,0.03936 -0.139,0.219616 -0.3089,0.400577 -0.38937,0.414736 -0.86371,0.982062 -0.95657,1.144079 -0.0391,0.0682 -0.13176,0.186759 -0.20593,0.263455 -0.0742,0.0767 -0.2646,0.298669 -0.42316,0.493275 -0.15857,0.194606 -0.34588,0.414946 -0.41624,0.489645 -0.28701,0.304676 -0.90172,1.063252 -0.90172,1.112751 0,0.02919 -0.12383,0.173467 -0.27518,0.320609 -0.15136,0.147141 -0.52753,0.582604 -0.83595,0.967694 -0.30842,0.385091 -0.61087,0.729807 -0.6721,0.766037 -0.0612,0.03623 -0.11133,0.119632 -0.11133,0.185338 0,0.06571 -0.0311,0.119465 -0.0691,0.119465 -0.038,0 -0.32466,0.32251 -0.63704,0.716689 -0.31238,0.394179 -0.6427,0.800647 -0.73405,0.903262 -0.19506,0.219111 -0.37551,0.432345 -0.82507,0.974969 -0.18122,0.218731 -0.39436,0.465706 -0.47364,0.548833 -0.0793,0.08313 -0.14416,0.186904 -0.14416,0.230615 0,0.04371 -0.0741,0.11915 -0.16474,0.167642 -0.0906,0.04849 -0.16474,0.120908 -0.16474,0.160921 0,0.04001 -0.13901,0.219999 -0.3089,0.399968 -0.16989,0.179968 -0.38303,0.430853 -0.47364,0.557523 -0.0906,0.126671 -0.23888,0.313954 -0.32949,0.416186 -0.0906,0.102233 -0.29448,0.342747 -0.45305,0.534475 -0.15857,0.191728 -0.37615,0.444037 -0.48351,0.560685 -0.10736,0.116647 -0.29248,0.341824 -0.41138,0.50039 -0.11889,0.158567 -0.26272,0.317946 -0.31961,0.354176 -0.0569,0.03623 -0.10346,0.09807 -0.10346,0.13743 0,0.03936 -0.139,0.221679 -0.30889,0.405159 -0.41659,0.449908 -0.49398,0.541203 -0.94757,1.117827 -0.38969,0.495378 -0.81049,1.000244 -1.05434,1.264971 -0.31643,0.343513 -0.90172,1.067773 -0.90172,1.115825 0,0.02919 -0.124,0.173467 -0.27556,0.320608 -0.15155,0.147141 -0.58416,0.656739 -0.96135,1.132439 -0.37719,0.475701 -0.72881,0.901977 -0.78139,0.947282 -0.0526,0.0453 -0.34908,0.397447 -0.6589,0.782537 -0.30982,0.385091 -0.62188,0.761282 -0.69347,0.83598 -0.0716,0.0747 -0.25989,0.295039 -0.41845,0.489645 -0.15857,0.194607 -0.34391,0.413895 -0.41186,0.487308 -0.068,0.07341 -0.25138,0.297883 -0.40759,0.498823 -0.15622,0.200939 -0.33229,0.394987 -0.39127,0.431217 -0.059,0.03623 -0.10724,0.09807 -0.10724,0.13743 0,0.03936 -0.139,0.219956 -0.3089,0.401332 -0.16989,0.181376 -0.38303,0.426793 -0.47364,0.545372 -0.0906,0.118579 -0.22382,0.279013 -0.29602,0.356519 -0.23741,0.254842 -0.42973,0.655601 -0.37858,0.788887 0.0455,0.118682 1.19623,0.133005 12.31837,0.153334 11.55009,0.02111 12.27745,0.03086 12.4274,0.166575 0.0876,0.07928 0.20112,0.144151 0.25228,0.144151 0.1686,0 0.72769,0.610825 0.90971,0.993882 0.1466,0.308524 0.1787,0.524988 0.1787,1.204906 0,0.610455 -0.0304,0.854066 -0.11547,0.924653 -0.0635,0.05271 -0.13796,0.185412 -0.16544,0.294891 -0.0574,0.228564 -0.35189,0.56421 -0.5634,0.642058 -0.0793,0.02918 -0.14415,0.08961 -0.14415,0.134281 0,0.04467 -0.13901,0.106393 -0.3089,0.137153 -0.16989,0.03076 -0.40899,0.106574 -0.53133,0.168477 -0.33462,0.169315 -30.15544,0.15182 -30.46126,-0.01787 z"
     style="opacity:1;fill:#2d2d2d;fill-opacity:1;stroke-width:0.01647446;stroke-miterlimit:4;stroke-dasharray:none" />
  <path
     id="path945"
     d="m 353.61569,67.931897 c -0.023,-0.02417 -0.60845,-0.08376 -1.30107,-0.132409 -0.7236,-0.05083 -1.35409,-0.136266 -1.48213,-0.20084 -0.12255,-0.06181 -0.43499,-0.133255 -0.69431,-0.158772 -0.25933,-0.02551 -0.55485,-0.104771 -0.65672,-0.176124 -0.10187,-0.07135 -0.27945,-0.129731 -0.39463,-0.129731 -0.11518,0 -0.34773,-0.07413 -0.51679,-0.164745 -0.16906,-0.09061 -0.36654,-0.164745 -0.43884,-0.164745 -0.0723,0 -0.2257,-0.07413 -0.34089,-0.164744 -0.1152,-0.09061 -0.25412,-0.164745 -0.30874,-0.164745 -0.11033,0 -0.93608,-0.415288 -1.32,-0.663862 -0.13592,-0.088 -0.34145,-0.206302 -0.45675,-0.262895 -0.1153,-0.05659 -0.26357,-0.147951 -0.32949,-0.203016 -0.0659,-0.05507 -0.42597,-0.343927 -0.80011,-0.641914 -0.66568,-0.53018 -1.74973,-1.58501 -1.74973,-1.70256 0,-0.05241 -0.14778,-0.23562 -0.51975,-0.644369 -0.0618,-0.06796 -0.13622,-0.17916 -0.16528,-0.247117 -0.0291,-0.06796 -0.14652,-0.271829 -0.26103,-0.453048 -0.11451,-0.181219 -0.26579,-0.440692 -0.33618,-0.576606 -0.0704,-0.135914 -0.1808,-0.339786 -0.24537,-0.453048 -0.0646,-0.113262 -0.11795,-0.26626 -0.11862,-0.339997 -6.7e-4,-0.07374 -0.0539,-0.177805 -0.11834,-0.231265 -0.0644,-0.05346 -0.14211,-0.252604 -0.17266,-0.442541 -0.0305,-0.189937 -0.10297,-0.420407 -0.16094,-0.512155 -0.058,-0.09175 -0.13317,-0.405983 -0.16709,-0.6983 -0.0339,-0.292316 -0.11267,-0.675987 -0.17499,-0.852602 -0.15541,-0.440497 -0.15479,-2.834735 8.7e-4,-3.348181 0.0618,-0.203872 0.1395,-0.648682 0.17265,-0.988468 0.0331,-0.339786 0.10738,-0.673394 0.16496,-0.741351 0.0576,-0.06796 0.13002,-0.299629 0.16099,-0.514827 0.031,-0.215198 0.0886,-0.391268 0.12808,-0.391268 0.0395,0 0.0951,-0.0834 0.12353,-0.185338 0.0647,-0.231577 0.4689,-1.077056 0.54151,-1.13262 0.0296,-0.02265 0.11908,-0.168469 0.19883,-0.324038 0.15683,-0.305925 1.60888,-1.817642 1.74591,-1.817642 0.0459,0 0.15057,-0.07413 0.23257,-0.164745 0.082,-0.09061 0.19321,-0.164744 0.24712,-0.164744 0.0539,0 0.16512,-0.07413 0.24712,-0.164745 0.082,-0.09061 0.19395,-0.164745 0.24877,-0.164745 0.0548,0 0.19393,-0.07413 0.30912,-0.164744 0.1152,-0.09061 0.26347,-0.164745 0.32949,-0.164745 0.066,0 0.2143,-0.07413 0.32949,-0.164745 0.11519,-0.09061 0.28435,-0.164744 0.3759,-0.164744 0.0916,0 0.21755,-0.05108 0.27998,-0.113516 0.0624,-0.06243 0.24115,-0.140207 0.39715,-0.17283 0.156,-0.03262 0.36162,-0.108582 0.45693,-0.168796 0.0953,-0.06021 0.31772,-0.134871 0.49424,-0.165904 0.17652,-0.03103 0.39597,-0.103235 0.48768,-0.160449 0.0917,-0.05721 0.36971,-0.130716 0.61779,-0.163338 0.24808,-0.03262 0.52519,-0.105671 0.6158,-0.162331 0.0906,-0.05666 0.41973,-0.128789 0.73139,-0.160288 0.31165,-0.0315 0.6638,-0.10619 0.78254,-0.165978 0.11874,-0.05979 0.55449,-0.131694 0.96833,-0.159789 0.41385,-0.0281 0.85866,-0.09343 0.98847,-0.145185 0.12981,-0.05176 0.7735,-0.124968 1.43042,-0.162693 0.65692,-0.03772 1.50947,-0.12413 1.89456,-0.192011 0.5134,-0.0905 1.96362,-0.148951 5.43658,-0.219128 4.05235,-0.08188 4.75722,-0.114013 4.88056,-0.222459 0.12901,-0.11344 0.14368,-0.309256 0.13966,-1.864398 -0.006,-2.123952 -0.10987,-4.048857 -0.22722,-4.190251 -0.048,-0.05778 -0.11237,-0.308 -0.14314,-0.556043 -0.0308,-0.248044 -0.1026,-0.525934 -0.15962,-0.617532 -0.057,-0.0916 -0.1298,-0.321137 -0.16172,-0.510085 -0.0319,-0.188948 -0.11074,-0.387282 -0.17516,-0.440742 -0.0644,-0.05346 -0.11712,-0.161798 -0.11712,-0.240751 0,-0.07895 -0.0741,-0.237797 -0.16474,-0.352988 -0.0906,-0.115191 -0.16475,-0.246598 -0.16475,-0.292015 0,-0.209505 -1.28863,-1.662444 -1.47445,-1.662444 -0.0527,0 -0.11822,-0.05844 -0.14563,-0.129869 -0.0274,-0.07143 -0.12818,-0.166003 -0.22394,-0.210168 -0.0957,-0.04416 -0.32237,-0.170182 -0.50359,-0.280037 -0.43628,-0.264474 -0.67893,-0.368394 -0.86018,-0.368394 -0.0821,0 -0.1935,-0.05326 -0.24752,-0.118352 -0.054,-0.06509 -0.30877,-0.14395 -0.5661,-0.175238 -0.25734,-0.03129 -0.57908,-0.117033 -0.715,-0.190545 -0.36495,-0.197392 -5.30887,-0.196162 -5.68369,0.0014 -0.13591,0.07165 -0.54103,0.154054 -0.90026,0.18313 -0.35923,0.02908 -0.7299,0.102621 -0.82372,0.163431 -0.0938,0.06081 -0.38628,0.132442 -0.64991,0.159183 -0.26363,0.02674 -0.53386,0.09387 -0.6005,0.14918 -0.0666,0.05531 -0.30972,0.130366 -0.54018,0.166796 -0.23045,0.03643 -0.48209,0.123329 -0.5592,0.193108 -0.0771,0.06978 -0.22215,0.126871 -0.32232,0.126871 -0.10017,0 -0.32745,0.07413 -0.50506,0.164744 -0.17761,0.09061 -0.39589,0.164745 -0.48507,0.164745 -0.0892,0 -0.21481,0.05267 -0.27919,0.117045 -0.0644,0.06437 -0.27089,0.158473 -0.45893,0.209106 -0.18804,0.05063 -0.34188,0.123574 -0.34188,0.16209 0,0.03852 -0.12602,0.09367 -0.28003,0.122564 -0.15402,0.02889 -0.32338,0.104771 -0.37637,0.168617 -0.053,0.06385 -0.20242,0.139383 -0.33207,0.16786 -0.12966,0.02848 -0.27689,0.101357 -0.32718,0.161957 -0.0503,0.0606 -0.18893,0.13465 -0.30809,0.164557 -0.11915,0.0299 -0.30797,0.12621 -0.41959,0.214012 -0.11162,0.0878 -0.24958,0.159638 -0.30658,0.159638 -0.057,0 -0.12497,0.0556 -0.15105,0.123559 -0.0261,0.06796 -0.12271,0.123558 -0.21475,0.123558 -0.092,0 -0.24146,0.07413 -0.33207,0.164745 -0.0906,0.09061 -0.21108,0.164989 -0.26771,0.165287 -0.0566,3.3e-4 -0.21417,0.07419 -0.35008,0.164202 -0.13592,0.09001 -0.32977,0.163904 -0.43079,0.164202 -0.10102,3.3e-4 -0.33356,0.06051 -0.51675,0.133814 -0.31682,0.126768 -0.36084,0.124341 -0.90223,-0.04974 -0.31303,-0.100654 -0.58901,-0.234761 -0.61329,-0.298016 -0.0243,-0.06325 -0.0916,-0.116361 -0.14968,-0.118015 -0.13943,-0.004 -0.5249,-0.626575 -0.59679,-0.963922 -0.0313,-0.146722 -0.0911,-0.287913 -0.13289,-0.313758 -0.12225,-0.07556 -0.0849,-1.205976 0.0475,-1.437599 0.0648,-0.113262 0.11904,-0.278074 0.12064,-0.366248 0.01,-0.531881 1.52614,-1.968181 2.61261,-2.474521 0.14414,-0.06718 0.28357,-0.156916 0.30984,-0.199422 0.0263,-0.0425 0.16105,-0.102163 0.2995,-0.132573 0.13846,-0.03041 0.27014,-0.103238 0.29263,-0.161839 0.0225,-0.0586 0.14525,-0.127421 0.27281,-0.152932 0.12755,-0.02551 0.28934,-0.103806 0.35952,-0.173988 0.0702,-0.07018 0.17253,-0.127604 0.22743,-0.127604 0.0947,0 0.44959,-0.15 1.18871,-0.50236 0.18122,-0.08639 0.38564,-0.156973 0.45427,-0.156847 0.0686,1.26e-4 0.2631,-0.07391 0.43216,-0.164516 0.16906,-0.09061 0.38312,-0.164745 0.4757,-0.164745 0.0926,0 0.31364,-0.07413 0.49125,-0.164744 0.17761,-0.09061 0.42634,-0.166003 0.55273,-0.16754 0.1264,-0.0015 0.37808,-0.07442 0.5593,-0.16195 0.18122,-0.08753 0.45922,-0.160641 0.61779,-0.162457 0.15857,-0.0018 0.39318,-0.058 0.52136,-0.124856 0.12818,-0.06686 0.50255,-0.155013 0.83195,-0.195907 0.32939,-0.04089 0.67229,-0.113632 0.76199,-0.161639 0.0897,-0.04801 0.61119,-0.126193 1.15887,-0.173749 0.54767,-0.04755 1.10073,-0.127187 1.22901,-0.17696 0.31677,-0.122908 5.12658,-0.129328 5.35488,-0.0071 0.0908,0.04859 0.55819,0.128326 1.03869,0.177203 0.4805,0.04888 1.00417,0.143408 1.16372,0.210072 0.15955,0.06666 0.39321,0.122463 0.51926,0.124 0.12604,0.0015 0.37744,0.07441 0.55866,0.16195 0.18122,0.08753 0.42215,0.160657 0.53542,0.162492 0.11326,0.0018 0.31713,0.07699 0.45304,0.166997 0.13592,0.09001 0.30898,0.163904 0.38459,0.164202 0.17067,6.76e-4 1.45091,0.648724 1.66903,0.844859 0.0882,0.07928 0.19435,0.144152 0.23596,0.144152 0.0416,0 0.26628,0.147099 0.49929,0.326887 0.23301,0.179787 0.5092,0.392926 0.61376,0.47364 0.59901,0.462415 1.88351,1.906833 2.01676,2.267842 0.0293,0.07928 0.0914,0.144151 0.13816,0.144151 0.0467,0 0.085,0.0484 0.085,0.107556 0,0.05915 0.0927,0.23316 0.20593,0.386678 0.11326,0.153518 0.20593,0.347221 0.20593,0.43045 0,0.08323 0.052,0.171265 0.11546,0.195634 0.0635,0.02437 0.13969,0.173424 0.16929,0.331233 0.0296,0.15781 0.10738,0.307478 0.17284,0.332596 0.0655,0.02512 0.11902,0.126536 0.11902,0.225371 0,0.09884 0.0699,0.316874 0.15541,0.484529 0.0855,0.167655 0.18084,0.440384 0.21192,0.606065 0.0311,0.165682 0.105,0.379222 0.16427,0.474534 0.0593,0.09531 0.12797,0.358633 0.15267,0.585157 0.0247,0.226524 0.10301,0.523064 0.17404,0.658978 0.071,0.135915 0.12937,0.433644 0.12965,0.661621 2.4e-4,0.227976 0.0634,0.617186 0.1403,0.864909 0.12859,0.414262 0.14194,1.523554 0.16644,13.823455 0.0265,13.297878 0.0257,13.374562 -0.1398,13.642342 -0.0915,0.148111 -0.16644,0.31741 -0.16644,0.376219 0,0.05881 -0.0547,0.165636 -0.12165,0.237394 -0.39362,0.422129 -0.53667,0.56113 -0.74883,0.727668 -0.12986,0.101936 -0.29396,0.185338 -0.36465,0.185338 -0.0707,0 -0.22013,0.06416 -0.33208,0.142567 -0.28338,0.198487 -1.91403,0.204586 -2.22191,0.0083 -0.11327,-0.0722 -0.2993,-0.152778 -0.41342,-0.179055 -0.42448,-0.09775 -1.39877,-1.249162 -1.39877,-1.653076 0,-0.10292 -0.0552,-0.36909 -0.12267,-0.591488 -0.093,-0.306486 -0.12288,-0.855506 -0.12356,-2.268244 -7.4e-4,-1.530589 -0.0223,-1.881686 -0.12084,-1.963434 -0.16052,-0.133223 -0.28337,-0.04367 -0.43339,0.315958 -0.0686,0.164361 -0.25012,0.488014 -0.40345,0.719228 -0.15334,0.231212 -0.2788,0.458919 -0.2788,0.506014 0,0.04709 -0.0556,0.106962 -0.12355,0.13304 -0.068,0.02608 -0.12356,0.087 -0.12356,0.135386 0,0.112528 -0.83099,1.152783 -0.92088,1.152783 -0.0372,0 -0.0676,0.03674 -0.0676,0.08166 0,0.07241 -0.18044,0.259866 -0.635,0.659695 -0.0773,0.06796 -0.36447,0.299347 -0.63824,0.514199 -0.27377,0.214853 -0.5514,0.436268 -0.61694,0.492035 -0.1332,0.113316 -0.49131,0.317687 -0.87983,0.502103 -0.14171,0.06727 -0.2829,0.16315 -0.31376,0.213077 -0.0309,0.04993 -0.11878,0.0916 -0.19539,0.09261 -0.0766,0.001 -0.23196,0.07432 -0.34522,0.162913 -0.11327,0.08859 -0.28007,0.16215 -0.37068,0.163455 -0.0906,0.0013 -0.27595,0.07602 -0.41186,0.166034 -0.13591,0.09001 -0.34081,0.163904 -0.45531,0.164202 -0.11451,3.29e-4 -0.28518,0.05447 -0.37928,0.12037 -0.0941,0.06591 -0.40258,0.157112 -0.68554,0.202681 -0.28296,0.04557 -0.55815,0.119107 -0.61154,0.163418 -0.13728,0.11393 -3.83226,0.407728 -3.92327,0.31195 z m 3.33665,-5.079306 c 0.54366,-0.05643 1.06261,-0.14864 1.15322,-0.204919 0.0906,-0.05628 0.35008,-0.129593 0.5766,-0.16292 0.22653,-0.03333 0.46746,-0.108206 0.53542,-0.166399 0.068,-0.05819 0.25884,-0.130014 0.42418,-0.159604 0.16534,-0.02959 0.34595,-0.10842 0.40135,-0.175178 0.0554,-0.06676 0.16534,-0.121379 0.24429,-0.121379 0.079,0 0.23195,-0.06634 0.34,-0.147432 0.10804,-0.08109 0.28911,-0.193758 0.40237,-0.250378 0.35282,-0.176376 0.59681,-0.32584 0.64952,-0.39787 0.0279,-0.03808 0.23599,-0.197892 0.46251,-0.355146 0.49201,-0.34156 1.65815,-1.516348 1.98816,-2.002914 0.12948,-0.190896 0.28186,-0.376726 0.33862,-0.412956 0.0568,-0.03623 0.1032,-0.113887 0.1032,-0.172571 0,-0.05868 0.0741,-0.17379 0.16475,-0.255791 0.0906,-0.082 0.16474,-0.202368 0.16474,-0.267484 0,-0.06511 0.0741,-0.21264 0.16475,-0.327831 0.0906,-0.115191 0.16474,-0.255503 0.16474,-0.311803 0,-0.0563 0.0532,-0.146531 0.11827,-0.200514 0.065,-0.05398 0.1433,-0.216058 0.17391,-0.360168 0.0306,-0.14411 0.10243,-0.31762 0.1596,-0.385577 0.0572,-0.06796 0.12989,-0.267981 0.16157,-0.444498 0.0317,-0.176516 0.10614,-0.398921 0.16546,-0.494233 0.0593,-0.09531 0.1303,-0.379832 0.15775,-0.632267 0.0274,-0.252434 0.10532,-0.570063 0.17305,-0.705841 0.17928,-0.359356 0.28682,-4.877324 0.12337,-5.182729 l -0.11145,-0.208242 -2.26999,0.03097 c -3.17883,0.04336 -7.38094,0.211392 -7.87131,0.314748 -0.22652,0.04774 -0.83814,0.119918 -1.35914,0.160384 -0.52101,0.04047 -1.07702,0.127369 -1.23559,0.193117 -0.15856,0.06575 -0.52668,0.140943 -0.81804,0.167099 -0.29135,0.02616 -0.61439,0.103025 -0.71786,0.17082 -0.10346,0.06779 -0.29191,0.123262 -0.41876,0.123262 -0.12685,0 -0.36896,0.07414 -0.53802,0.164745 -0.16906,0.09061 -0.37989,0.164745 -0.46851,0.164745 -0.17647,0 -1.25608,0.546559 -1.66567,0.843258 -0.47568,0.344579 -0.88076,0.737766 -1.11374,1.081043 -0.12726,0.187516 -0.27772,0.38992 -0.33435,0.449787 -0.0566,0.05987 -0.10297,0.168151 -0.10297,0.240631 0,0.07248 -0.0571,0.194867 -0.12687,0.271973 -0.0698,0.0771 -0.15668,0.328745 -0.19311,0.559201 -0.0364,0.230455 -0.11834,0.481792 -0.18202,0.558527 -0.0896,0.107906 -0.1157,0.458586 -0.11537,1.547778 3.6e-4,1.18344 0.0234,1.450349 0.14415,1.671883 0.079,0.14499 0.14373,0.363336 0.14373,0.485211 0,0.121876 0.0699,0.373923 0.15537,0.560104 0.38692,0.842987 0.3433,0.76239 0.77276,1.427927 0.36086,0.559232 1.87929,1.999547 2.10799,1.999547 0.0472,0 0.11549,0.04726 0.15171,0.105019 0.0768,0.122379 0.89625,0.553959 1.05186,0.553959 0.0582,0 0.15051,0.05378 0.20507,0.119522 0.0546,0.06574 0.27223,0.145311 0.48372,0.176832 0.2115,0.03152 0.45897,0.105857 0.54993,0.165192 0.091,0.05933 0.48018,0.133437 0.86491,0.164673 0.38473,0.03123 0.77365,0.08784 0.86426,0.125779 0.2018,0.0845 1.31464,0.04605 2.63591,-0.09109 z"
     style="opacity:1;fill:#2d2d2d;fill-opacity:1;stroke-width:0.01647446;stroke-miterlimit:4;stroke-dasharray:none" />
</svg>
